<?xml version="1.0" encoding="UTF-8" standalone="no"?>
<!-- Created with Inkscape (http://www.inkscape.org/) -->

<svg
   width="2880"
   height="1620"
   viewBox="0 0 2880.0003 1620.0001"
   version="1.1"
   id="svg8"
   inkscape:version="1.2.2 (b0a8486541, 2022-12-01)"
   sodipodi:docname="stars2_2023.svg"
   xml:space="preserve"
   xmlns:inkscape="http://www.inkscape.org/namespaces/inkscape"
   xmlns:sodipodi="http://sodipodi.sourceforge.net/DTD/sodipodi-0.dtd"
   xmlns="http://www.w3.org/2000/svg"
   xmlns:svg="http://www.w3.org/2000/svg"
   xmlns:rdf="http://www.w3.org/1999/02/22-rdf-syntax-ns#"
   xmlns:cc="http://creativecommons.org/ns#"
   xmlns:dc="http://purl.org/dc/elements/1.1/"><defs
     id="defs2"><clipPath
       clipPathUnits="userSpaceOnUse"
       id="clipPath290923"><rect
         style="opacity:0.7;fill:#2f6b5a;fill-opacity:1;fill-rule:evenodd;stroke:none;stroke-width:2.70918;stroke-linecap:round;stroke-linejoin:round;stroke-miterlimit:4;stroke-dasharray:none;stroke-opacity:1;paint-order:markers fill stroke"
         id="rect290925"
         width="309.65643"
         height="170.30928"
         x="-358.01489"
         y="775.27844" /></clipPath><clipPath
       clipPathUnits="userSpaceOnUse"
       id="clipPath292441"><rect
         style="opacity:0.7;fill:#ffffff;fill-opacity:1;fill-rule:evenodd;stroke:none;stroke-width:4.18763;stroke-linecap:round;stroke-linejoin:round;stroke-miterlimit:4;stroke-dasharray:none;stroke-opacity:1;paint-order:markers fill stroke"
         id="rect292443"
         width="478.64374"
         height="263.22327"
         x="-510.89438"
         y="765.67975" /></clipPath></defs><sodipodi:namedview
     id="base"
     pagecolor="#525252"
     bordercolor="#404040"
     borderopacity="1"
     inkscape:pageopacity="0"
     inkscape:pageshadow="2"
     inkscape:zoom="0.24748738"
     inkscape:cx="1341.4825"
     inkscape:cy="1341.4825"
     inkscape:document-units="px"
     inkscape:current-layer="layer1"
     showgrid="false"
     inkscape:window-width="1914"
     inkscape:window-height="1047"
     inkscape:window-x="1923"
     inkscape:window-y="3"
     inkscape:window-maximized="0"
     inkscape:pagecheckerboard="0"
     units="px"
     fit-margin-top="0"
     fit-margin-left="0"
     fit-margin-right="0"
     fit-margin-bottom="0"
     inkscape:showpageshadow="0"
     inkscape:deskcolor="#525252"
     showguides="true" /><metadata
     id="metadata5"><rdf:RDF><cc:Work
         rdf:about=""><dc:format>image/svg+xml</dc:format><dc:type
           rdf:resource="http://purl.org/dc/dcmitype/StillImage" /></cc:Work></rdf:RDF></metadata><g
     inkscape:label="Layer 1"
     inkscape:groupmode="layer"
     id="layer1"
     transform="translate(-3.2817777,5578.2887)"><path
       id="path7434"
       style="fill:#feffc7;fill-opacity:0.8;stroke-width:0.383116"
       d="m 691.49467,-5573.0465 -3.19336,3.1933 3.19336,3.1934 3.19336,-3.1934 z m -154.02735,1.9043 -1.9414,1.9414 1.9414,1.9414 1.94141,-1.9414 z m 673.77538,2.959 -3.1914,3.1914 3.1914,3.1933 3.1934,-3.1933 z m -1025.8828,2.5335 -3.19336,3.1933 3.19336,3.1934 3.19336,-3.1934 z m 2449.5898,0.059 -3.1914,3.1933 3.1914,3.1934 3.1954,-3.1934 z m -1342.4003,0.6132 -3.1934,3.1934 3.1934,3.1934 3.1933,-3.1934 z m 1240.6855,0.7011 -3.1934,3.1934 3.1934,3.1933 3.1934,-3.1933 z m -677.8066,3.5941 -1.9414,1.9414 1.9414,1.9414 1.9414,-1.9414 z m -1505.95512,1.9433 -2.80664,2.8067 2.80664,2.8086 2.8086,-2.8086 z m 1285.81832,0.8187 -3.1933,3.1933 3.1933,3.1934 3.1934,-3.1934 z m 791.084,2.1445 -3.1933,3.1934 3.1933,3.1933 3.1934,-3.1933 z m -687.6133,0.1797 -3.1933,3.1934 3.1933,3.1933 3.1915,-3.1933 z m -744.50972,3.6641 -3.19141,3.1933 3.19141,3.1934 3.19336,-3.1934 z m 1270.97262,1.7636 -1.9414,1.9414 1.9414,1.9414 1.9414,-1.9414 z m -2050.77535,1.2051 -3.19336,3.1934 3.19336,3.1933 3.19336,-3.1933 z m 658.83593,2.9531 -3.1914,3.1934 3.1914,3.1934 3.19532,-3.1934 z m -578.54882,1.9629 -3.19336,3.1934 3.19336,3.1914 3.19336,-3.1914 z m 864.43164,0.4063 -3.1914,3.1933 3.1914,3.1934 3.1934,-3.1934 z m 1681.3086,0.6719 -3.1934,3.1933 3.1934,3.1934 3.1933,-3.1934 z m -2592.71681,0.7832 -3.19336,3.1933 3.19336,3.1934 3.19336,-3.1934 z m 2460.08401,2.1132 -3.1934,3.1934 3.1934,3.1934 3.1933,-3.1934 z m -2294.45705,0.3086 -3.19336,3.1934 3.19336,3.1933 3.19336,-3.1933 z m 900.40815,12.166 -3.1933,3.1934 3.1933,3.1934 3.1934,-3.1934 z m 178.9141,0.7149 -3.1933,3.1933 3.1933,3.1934 3.1914,-3.1934 z m -373.6406,1.3086 -2.8067,2.8066 2.8067,2.8086 2.8086,-2.8086 z m 102.2031,10.8984 -3.1933,3.1934 3.1933,3.1933 3.1934,-3.1933 z m -1038.52147,1.0996 -2.80664,2.8067 2.80664,2.8066 2.80859,-2.8066 z m 2208.84567,2.418 -3.1933,3.1934 3.1933,3.1933 3.1934,-3.1933 z m -1324.9804,1.0234 -3.1934,3.1934 3.1934,3.1934 3.1914,-3.1934 z m 292.3222,6.9649 -3.1933,3.1933 3.1933,3.1934 3.1934,-3.1934 z m 1131.041,1.0508 -1.9414,1.9414 1.9414,1.9414 1.9414,-1.9414 z m 258.2774,6.3281 -1.9414,1.9414 1.9414,1.9414 1.9414,-1.9414 z m -1604.8438,0.5625 -3.1933,3.1933 3.1933,3.1934 3.1914,-3.1934 z m 822.4395,0.1308 -3.1934,3.1934 3.1934,3.1934 3.1933,-3.1934 z m 139.6152,0.4258 -3.1933,3.1934 3.1933,3.1933 3.1934,-3.1933 z m 681.9375,4.9258 -3.1933,3.1934 3.1933,3.1933 3.1914,-3.1933 z m -1518.539,0.9704 -3.1954,3.1934 3.1954,3.1933 3.1933,-3.1933 z m 313.7461,0.377 -3.1934,3.1933 3.1934,3.1914 3.1933,-3.1914 z m -405.8887,1.1738 -3.1934,3.1934 3.1934,3.1933 3.1933,-3.1933 z m 1474.998,0 -1.9414,1.9414 1.9414,1.9414 1.9414,-1.9414 z m -2097.81638,0.6381 -3.19335,3.1933 3.19335,3.1934 3.19141,-3.1934 z m 1314.88088,3.3007 -3.1934,3.1934 3.1934,3.1934 3.1933,-3.1934 z m -1072.61525,5.877 -3.19336,3.1934 3.19336,3.1933 3.19336,-3.1933 z m 2066.94145,0.4102 -3.1934,3.1933 3.1934,3.1934 3.1933,-3.1934 z m -2600.57231,0.9062 -3.19336,3.1934 3.19336,3.1933 3.19336,-3.1933 z m 430.44922,1.0703 -3.19141,3.1934 3.19141,3.1933 3.19141,-3.1933 z m -546.34961,3.377 -3.19336,3.1933 3.19336,3.1934 3.19336,-3.1934 z m 961.7695,1.5449 -3.1933,3.1934 3.1933,3.1933 3.1934,-3.1933 z m -68.2695,1.5059 -3.1934,3.1933 3.1934,3.1934 3.1934,-3.1934 z m -977.203125,9.7011 -3.19336,3.1934 3.19336,3.1933 3.193359,-3.1933 z m 2751.302725,6.2656 -1.9414,1.9415 1.9414,1.9414 1.9414,-1.9414 z m -2604.03319,0.1153 -3.19336,3.1933 3.19336,3.1914 3.19336,-3.1914 z m 217.7832,5.1035 -2.80664,2.8066 2.80664,2.8086 2.80859,-2.8086 z m 709.27339,0.4453 -3.1933,3.1934 3.1933,3.1933 3.1934,-3.1933 z m 756.504,2.9785 -3.1934,3.1934 3.1934,3.1933 3.1933,-3.1933 z m -938.04106,0.5039 -3.19336,3.1953 3.19336,3.1915 3.19336,-3.1915 z m 567.74806,3.0469 -2.8067,2.8066 2.8067,2.8086 2.8086,-2.8086 z m 1060.3027,1.1406 -3.1933,3.1934 3.1933,3.1934 3.1934,-3.1934 z m -1966.43162,2.5586 -3.18946,3.1934 3.18946,3.1933 3.19336,-3.1933 z m 1551.96092,0.4512 -1.9414,1.9414 1.9414,1.9414 1.9414,-1.9414 z m -1842.61522,1.6365 -3.19336,3.1934 3.19336,3.1933 3.19336,-3.1933 z m 2406.50192,1.1504 -2.8066,2.8086 2.8066,2.8066 2.8067,-2.8066 z m -926.4609,6.4707 -3.1934,3.1934 3.1934,3.1933 3.1934,-3.1933 z m -127.3027,7.3418 -3.1914,3.1934 3.1914,3.1933 3.1933,-3.1933 z m 767.8691,5.4414 -3.1934,3.1934 3.1934,3.1933 3.1934,-3.1933 z m -1169.8027,2.6331 -1.9414,1.9414 1.9414,1.9414 1.9414,-1.9414 z m 684.6601,0.9554 -3.1933,3.1934 3.1933,3.1933 3.1934,-3.1933 z m -783.6914,6.8674 -3.1933,3.1934 3.1933,3.1933 3.1934,-3.1933 z m -1071.03709,1.6914 -1.94141,1.9414 1.94141,1.9414 1.94141,-1.9414 z m 2687.44729,7.5 -3.1934,3.1934 3.1934,3.1933 3.1933,-3.1933 z m -1745.6621,2.5176 -3.1934,3.1933 3.1934,3.1934 3.1933,-3.1934 z m 987.2246,2.1777 -2.8067,2.8086 2.8067,2.8066 2.8066,-2.8066 z m 244.5781,5.209 -3.1934,3.1934 3.1934,3.1933 3.1934,-3.1933 z m 366.8047,1.123 -3.1934,3.1934 3.1934,3.1914 3.1933,-3.1914 z m -2250.52345,3.7442 -3.19336,3.1933 3.19336,3.1934 3.19336,-3.1934 z m 1048.42775,1.1504 -3.1934,3.1933 3.1934,3.1934 3.1933,-3.1934 z m -105.2637,0.7129 -3.1933,3.1933 3.1933,3.1934 3.1914,-3.1934 z m -1106.36718,6.5273 -1.9414,1.9414 1.9414,1.9414 1.94141,-1.9414 z m 291.29883,2.8457 -3.19336,3.1934 3.19336,3.1933 3.19336,-3.1933 z m 721.60355,0.088 -3.1934,3.1934 3.1934,3.1933 3.1933,-3.1933 z m 1278.209,1.5352 -3.1934,3.1933 3.1934,3.1934 3.1933,-3.1934 z m -142.2247,4.9101 -1.9414,1.9414 1.9414,1.9414 1.9414,-1.9414 z m -1629.91988,2.3906 -3.19336,3.1934 3.19336,3.1934 3.19141,-3.1934 z m 1129.94138,3.2325 -3.1933,3.1933 3.1933,3.1934 3.1934,-3.1934 z m 967.0293,1.4629 -1.9414,1.9414 1.9414,1.9414 1.9414,-1.9414 z m -1941.45115,0.3398 -3.19336,3.1934 3.19336,3.1914 3.19336,-3.1914 z m -259.61133,3.457 -3.19335,3.1934 3.19335,3.1933 3.19336,-3.1933 z m 1167.49418,6.9121 -3.1934,3.1934 3.1934,3.1934 3.1933,-3.1934 z m -1506.99418,0.041 -3.19335,3.1933 3.19335,3.1934 3.19336,-3.1934 z m 1766.49998,17.9472 -1.9414,1.9414 1.9414,1.9414 1.9414,-1.9414 z m 716.336,0.5274 -2.8067,2.8066 2.8067,2.8066 2.8086,-2.8066 z m -780.6719,5.8421 -3.1934,3.1933 3.1934,3.1934 3.1933,-3.1934 z m 581.9375,2.2597 -2.8067,2.8067 2.8067,2.8086 2.8086,-2.8086 z m -217.8301,0.6758 -3.1934,3.1934 3.1934,3.1933 3.1934,-3.1933 z m -771.9121,7.7598 -3.1934,3.1933 3.1934,3.1934 3.1934,-3.1934 z m -436.0879,1.0566 -3.1934,3.1934 3.1934,3.1933 3.1914,-3.1933 z m -736.11132,0.4922 -2.80664,2.8066 2.80664,2.8086 2.80859,-2.8086 z m 2299.34372,0.9414 -3.1933,3.1934 3.1933,3.1933 3.1934,-3.1933 z m -2359.84567,2.418 -2.80664,2.8086 2.80664,2.8047 2.80664,-2.8047 z m 1834.36527,0.1601 -1.9414,1.9414 1.9414,1.9414 1.9414,-1.9414 z m -885.9336,3.4649 -3.1934,3.1933 3.1934,3.1934 3.1933,-3.1934 z m 1514.1504,4.4453 -3.1934,3.1933 3.1934,3.1934 3.1933,-3.1934 z m -2343.2891,2.8496 -3.19336,3.1934 3.19336,3.1933 3.19336,-3.1933 z m 87.45898,0.014 -3.19336,3.1933 3.19336,3.1934 3.19336,-3.1934 z m 1874.03712,2.2441 -3.1934,3.1934 3.1934,3.1914 3.1933,-3.1914 z m -524.8457,1.5728 -3.1914,3.1933 3.1914,3.1934 3.1933,-3.1934 z m -1264.04493,4.082 -3.19336,3.1934 3.19336,3.1933 3.19335,-3.1933 z m -404.40625,2.3984 -3.19336,3.1934 3.19336,3.1934 3.19335,-3.1934 z m 603.29296,2.6094 -3.19336,3.1934 3.19336,3.1933 3.19336,-3.1933 z m 1678.79882,3.3262 -3.1914,3.1933 3.1914,3.1934 3.1934,-3.1934 z m -817.4082,1.8924 -3.1934,3.1933 3.1934,3.1914 3.1934,-3.1914 z m 605.6309,12.9609 -3.1934,3.1934 3.1934,3.1933 3.1914,-3.1933 z m -1287.5918,6.2756 -1.9414,1.9414 1.9414,1.9414 1.9414,-1.9414 z m 1744.8886,3.7148 -3.1933,3.1934 3.1933,3.1934 3.1934,-3.1934 z m -2709.960894,1.7051 -3.19336,3.1934 3.19336,3.1933 3.193359,-3.1933 z m 382.726564,1.8731 -3.19336,3.1933 3.19336,3.1934 3.19336,-3.1934 z m -241.64844,0.3925 -3.19336,3.1934 3.19336,3.1934 3.19336,-3.1934 z m 504.01758,3.9164 -1.94141,1.9414 1.94141,1.9414 1.94141,-1.9414 z m 1371.86519,0.6367 -2.8066,2.8086 2.8066,2.8066 2.8067,-2.8066 z m -861.8027,4.582 -3.1934,3.1934 3.1934,3.1933 3.1934,-3.1933 z m 1607.8633,1.5645 -3.1934,3.1933 3.1934,3.1934 3.1933,-3.1934 z m -2336.77149,4.2324 -3.19336,3.1933 3.19336,3.1934 3.19336,-3.1934 z m -82.67774,0.3633 -3.19336,3.1933 3.19336,3.1934 3.19141,-3.1934 z m 1794.89063,1.8572 -3.1934,3.1933 3.1934,3.1934 3.1934,-3.1934 z m -811.9981,2.1894 -1.9414,1.9414 1.9414,1.9414 1.9415,-1.9414 z m 564.7676,2.9864 -3.1933,3.1933 3.1933,3.1934 3.1934,-3.1934 z m -1403.582,2.3359 -3.19336,3.1934 3.19336,3.1933 3.19336,-3.1933 z m 1305.9512,3.5469 -3.1934,3.1933 3.1934,3.1934 3.1933,-3.1934 z m -1504.23245,0.5586 -3.19336,3.1933 3.19336,3.1934 3.19336,-3.1934 z m 2111.08005,0.7968 -3.1933,3.1934 3.1933,3.1934 3.1934,-3.1934 z m 175.041,0.8653 -3.1933,3.1933 3.1933,3.1914 3.1934,-3.1914 z m -2498.19332,5.4023 -3.19336,3.1934 3.19336,3.1933 3.19336,-3.1933 z m 658.3457,4.9258 -3.19336,3.1934 3.19336,3.1933 3.19336,-3.1933 z m 112.45508,2.127 -3.19336,3.1933 3.19336,3.1934 3.19336,-3.1934 z m 1833.00394,11.3339 -3.1934,3.1934 3.1934,3.1934 3.1933,-3.1934 z m -384.4043,0.8868 -1.9414,1.9414 1.9414,1.9414 1.9414,-1.9414 z m -650.166,2.2461 -3.1934,3.1933 3.1934,3.1934 3.1933,-3.1934 z m -727.40629,12.9687 -3.19336,3.1934 3.19336,3.1933 3.19336,-3.1933 z m -675.26758,5.0078 -3.19336,3.1934 3.19336,3.1933 3.1914,-3.1933 z m 1001.41597,7.2363 -3.1933,3.1934 3.1933,3.1934 3.1914,-3.1934 z m 1254.1719,0.9512 -3.1933,3.1934 3.1933,3.1933 3.1914,-3.1933 z m -1692.62498,5.795 -3.19336,3.1934 3.19336,3.1934 3.19336,-3.1934 z m 1286.98438,1.391 -3.1934,3.1933 3.1934,3.1934 3.1934,-3.1934 z m 139.8262,0.7246 -3.1934,3.1933 3.1934,3.1934 3.1933,-3.1934 z m -2125.14847,0.3203 -3.19336,3.1933 3.19336,3.1934 3.19336,-3.1934 z m 964.75977,2.0371 -1.9414,1.9414 1.9414,1.9414 1.9414,-1.9414 z m 702.4101,1.4414 -3.1933,3.1934 3.1933,3.1933 3.1934,-3.1933 z m -447.7753,1.7617 -3.1934,3.1934 3.1934,3.1914 3.1933,-3.1914 z m -691.98442,0.2637 -3.19336,3.1933 3.19336,3.1934 3.19336,-3.1934 z m -600.1582,3.834 -3.19336,3.1933 3.19336,3.1934 3.19336,-3.1934 z m 929.14452,1.5215 -3.1933,3.1933 3.1933,3.1934 3.1934,-3.1934 z m -1006.437488,5.3535 -3.193359,3.1933 3.193359,3.1934 3.193359,-3.1934 z m 2030.482388,0.9804 -3.1933,3.1954 3.1933,3.1933 3.1934,-3.1933 z m -524.83,1.6543 -3.1934,3.1934 3.1934,3.1934 3.1933,-3.1934 z m -1120.73247,6.6348 -3.19336,3.1934 3.19336,3.1933 3.19336,-3.1933 z m 106.41211,0.1816 -3.1914,3.1934 3.1914,3.1934 3.19532,-3.1934 z m 2281.25586,0.1426 -3.1934,3.1934 3.1934,3.1933 3.1914,-3.1933 z m -335.7266,2.5996 -2.8066,2.8067 2.8066,2.8066 2.8067,-2.8066 z m 211.1524,1.7989 -3.1934,3.1953 3.1934,3.1933 3.1933,-3.1933 z m -1710.30666,12.0527 -3.19336,3.1934 3.19336,3.1933 3.19336,-3.1933 z m -735.16992,0.3262 -3.19336,3.1933 3.19336,3.1934 3.19336,-3.1934 z m 1032.78128,3.7578 -2.8067,2.8066 2.8067,2.8067 2.8066,-2.8067 z m 474.166,1.1543 -2.8067,2.8066 2.8067,2.8067 2.8066,-2.8067 z m -889.98048,1.9922 -3.19336,3.1933 3.19336,3.1934 3.19336,-3.1934 z m 826.29298,2.0371 -3.1934,3.1933 3.1934,3.1934 3.1933,-3.1934 z m -766.8379,5.4121 -3.19336,3.1933 3.19336,3.1934 3.19336,-3.1934 z m -578.82618,0.9824 -3.19335,3.1934 3.19335,3.1933 3.19336,-3.1933 z m 1632.32808,0.2891 -3.1933,3.1933 3.1933,3.1934 3.1934,-3.1934 z m -155.5488,8.2597 -3.1933,3.1953 3.1933,3.1934 3.1934,-3.1934 z m -480.1074,0.8789 -3.1934,3.1934 3.1934,3.1934 3.1914,-3.1934 z m -603.11914,4.6914 -1.94141,1.9415 1.94141,1.9414 1.94141,-1.9414 z m 1878.17774,6.6797 -2.8066,2.8086 2.8066,2.8067 2.8066,-2.8067 z m -2425.88477,5.9961 -3.19336,3.1934 3.19336,3.1933 3.19336,-3.1933 z m 1208.37307,0.2324 -2.8067,2.8067 2.8067,2.8066 2.8086,-2.8066 z m -792.59378,0.9825 -3.19335,3.1933 3.19335,3.1914 3.19336,-3.1914 z m -309.46093,8.5234 -3.19336,3.1934 3.19336,3.1933 3.19336,-3.1933 z m 2373.50001,1.8809 -3.1934,3.1933 3.1934,3.1934 3.1933,-3.1934 z m -1574.5449,0.1797 -3.1934,3.1933 3.1934,3.1934 3.1933,-3.1934 z m 97.4707,0.1093 -3.1934,3.1934 3.1934,3.1933 3.1933,-3.1933 z m 678.0507,3.0117 -1.9414,1.9415 1.9414,1.9414 1.9415,-1.9414 z m -1769.908154,0.418 -3.193359,3.1934 3.193359,3.1933 3.19336,-3.1933 z m 1157.382854,0.9297 -1.9414,1.9414 1.9414,1.9414 1.9414,-1.9414 z m 994.2597,14.0957 -3.1933,3.1934 3.1933,3.1933 3.1934,-3.1933 z m 549.9649,4.3867 -3.1934,3.1953 3.1934,3.1914 3.1933,-3.1914 z m -394.9551,3.6758 -3.1914,3.1934 3.1914,3.1933 3.1933,-3.1933 z m -1631.50978,1.1895 -3.19335,3.1933 3.19335,3.1934 3.19336,-3.1934 z m 238.27738,1.0371 -3.1934,3.1933 3.1934,3.1934 3.1933,-3.1934 z m -622.00394,0.8847 -3.19336,3.1934 3.19336,3.1934 3.19141,-3.1934 z m 939.71874,3.4649 -3.1933,3.1933 3.1933,3.1934 3.1914,-3.1934 z m -832.99022,0.039 -3.19336,3.1934 3.19336,3.1934 3.19336,-3.1934 z m 1653.23242,1.0352 -3.1934,3.1934 3.1934,3.1914 3.1934,-3.1914 z m -405.9941,6.1191 -3.1914,3.1934 3.1914,3.1934 3.1953,-3.1934 z m -1698.527385,4.3516 -3.193359,3.1934 3.193359,3.1933 3.19336,-3.1933 z m 218.369145,7.0957 -3.19336,3.1934 3.19336,3.1933 3.19336,-3.1933 z m 2287.88864,1.6231 -3.1933,3.1933 3.1933,3.1934 3.1934,-3.1934 z m 149.6953,0.4863 -2.8066,2.8066 2.8066,2.8067 2.8067,-2.8067 z m -2022.07027,3.2985 -3.19336,3.1934 3.19336,3.1933 3.19336,-3.1933 z m 497.66207,5.871 -3.1933,3.1934 3.1933,3.1933 3.1914,-3.1933 z m 1645.6368,5.9863 -3.1934,3.1934 3.1934,3.1933 3.1933,-3.1933 z m -2623.72465,0.4359 -1.94141,1.9414 1.94141,1.9414 1.9414,-1.9414 z m 1095.23045,0.3496 -3.1933,3.1933 3.1933,3.1934 3.1934,-3.1934 z m 667.9707,0.2265 -3.1933,3.1934 3.1933,3.1934 3.1934,-3.1934 z m -1012.27733,1.2329 -3.1914,3.1933 3.1914,3.1934 3.19336,-3.1934 z m -116.41601,0.1133 -2.80664,2.8066 2.80664,2.8066 2.80664,-2.8066 z m -741.515626,0.037 -3.193359,3.1933 3.193359,3.1934 3.193359,-3.1934 z m 1755.642566,1.4961 -1.9414,1.9414 1.9414,1.9414 1.9414,-1.9414 z m 782.4199,9.9707 -2.8066,2.8066 2.8066,2.8066 2.8086,-2.8066 z m -529.6093,4.2421 -3.1934,3.1934 3.1934,3.1934 3.1933,-3.1934 z m 214.0429,1.2657 -3.1933,3.1933 3.1933,3.1934 3.1934,-3.1934 z m -693.8164,2.4297 -3.1933,3.1933 3.1933,3.1934 3.1914,-3.1934 z m -185.2383,0.1093 -3.1933,3.1934 3.1933,3.1934 3.1934,-3.1934 z m 337.4004,0.3477 -3.1914,3.1933 3.1914,3.1934 3.1934,-3.1934 z m -1695.326141,3.293 -3.193359,3.1933 3.193359,3.1934 3.191406,-3.1934 z m 1633.083941,3.7832 -3.1933,3.1933 3.1933,3.1934 3.1914,-3.1934 z m 201.6719,3.9687 -3.1933,3.1934 3.1933,3.1933 3.1934,-3.1933 z m -1582.791,1.0332 -2.80859,2.8086 2.80859,2.8066 2.80664,-2.8066 z m 1709.3203,0.2852 -3.1933,3.1933 3.1933,3.1934 3.1934,-3.1934 z m 202.1543,5.8088 -3.1933,3.1933 3.1933,3.1934 3.1934,-3.1934 z m -1479.92772,2.2422 -1.94141,1.9414 1.94141,1.9414 1.9414,-1.9414 z m 127.10156,4.3496 -1.94141,1.9414 1.94141,1.9414 1.94141,-1.9414 z m 1864.68556,5.5859 -1.9414,1.9414 1.9414,1.9414 1.9414,-1.9414 z m -565.6348,0.02 -3.1933,3.1934 3.1933,3.1933 3.1914,-3.1933 z m -1534.27342,0.6892 -3.19336,3.1933 3.19336,3.1934 3.19336,-3.1934 z m 2165.02152,1.3555 -1.9414,1.9414 1.9414,1.9414 1.9414,-1.9414 z m -1626.166,6.1093 -3.1934,3.1934 3.1934,3.1933 3.1914,-3.1933 z m -166.1993,3.3379 -3.1933,3.1934 3.1933,3.1933 3.1934,-3.1933 z m 1564.0274,1.5723 -3.1914,3.1933 3.1914,3.1934 3.1933,-3.1934 z m -637.918,0.6621 -3.1934,3.1934 3.1934,3.1933 3.1934,-3.1933 z m -847.9297,0.5391 -3.1933,3.1933 3.1933,3.1934 3.1934,-3.1934 z m -652.61912,3.9472 -3.19336,3.1934 3.19336,3.1933 3.19141,-3.1933 z m 1565.08982,2.7598 -3.1914,3.1933 3.1914,3.1934 3.1953,-3.1934 z m -1336.30662,0.5996 -3.19336,3.1934 3.19336,3.1933 3.19336,-3.1933 z m 1437.89062,1.0566 -3.1934,3.1934 3.1934,3.1934 3.1934,-3.1934 z m -243.4629,3.2149 -3.1933,3.1933 3.1933,3.1934 3.1934,-3.1934 z m -1487.38084,2.4453 -3.19336,3.1934 3.19336,3.1933 3.19336,-3.1933 z m 1402.74214,2.9316 -3.1914,3.1934 3.1914,3.1934 3.1934,-3.1934 z m -1179.87105,1.5703 -3.1914,3.1934 3.1914,3.1934 3.19336,-3.1934 z m -327.4707,1.1797 -3.19531,3.1934 3.19531,3.1934 3.19141,-3.1934 z m 439.20508,5.58 -3.19336,3.1934 3.19336,3.1914 3.19336,-3.1914 z m -565.71094,0.2793 -3.19336,3.1934 3.19336,3.1933 3.19336,-3.1933 z m 181.75781,1.0215 -3.19336,3.1934 3.19336,3.1933 3.19336,-3.1933 z m 1381.9043,2.3887 -3.1934,3.1933 3.1934,3.1934 3.1934,-3.1934 z m -767.63281,5.0215 -3.19336,3.1933 3.19336,3.1934 3.19336,-3.1934 z m -882.964847,2.5156 -3.193359,3.1933 3.193359,3.1934 3.19336,-3.1934 z m 2162.289057,2.5996 -3.1934,3.1933 3.1934,3.1934 3.1934,-3.1934 z m 259.3203,1.3125 -2.8066,2.8086 2.8066,2.8066 2.8067,-2.8066 z m -1100.6523,0.2637 -1.9414,1.9414 1.9414,1.9414 1.9414,-1.9414 z m -132.2676,0.4531 -3.1934,3.1933 3.1934,3.1934 3.1934,-3.1934 z m -719.7168,0.014 -2.80664,2.8066 2.80664,2.8086 2.80859,-2.8086 z m 1648.8398,8.6816 -3.1933,3.1934 3.1933,3.1933 3.1934,-3.1933 z m 94.0215,1.6543 -3.1933,3.1934 3.1933,3.1933 3.1934,-3.1933 z m -1468.75778,1.6797 -2.80665,2.8066 2.80665,2.8067 2.80664,-2.8067 z m 1154.00778,2.3496 -3.1933,3.1934 3.1933,3.1933 3.1934,-3.1933 z m 413.8164,3.5391 -3.1933,3.1933 3.1933,3.1934 3.1934,-3.1934 z m -2159.41403,1.3027 -3.19336,3.1933 3.19336,3.1934 3.19336,-3.1934 z m 1920.71093,4.0742 -1.9414,1.9414 1.9414,1.9414 1.9414,-1.9414 z m 550.7109,0.4922 -3.1933,3.1934 3.1933,3.1933 3.1915,-3.1933 z m -1923.73238,1.7695 -3.19335,3.1934 3.19335,3.1933 3.19336,-3.1933 z m 715.07028,4.5039 -2.8086,2.8067 2.8086,2.8066 2.8067,-2.8066 z m -625.09371,2.6973 -3.19336,3.1934 3.19336,3.1933 3.1914,-3.1933 z m -160.76758,0.2734 -3.19336,3.1934 3.19336,3.1934 3.19336,-3.1934 z m -76.03125,1.7559 -3.19336,3.1934 3.19336,3.1933 3.19336,-3.1933 z m 1277.45314,0.1855 -3.1934,3.1934 3.1934,3.1934 3.1933,-3.1934 z m 911.9785,1.6348 -3.1934,3.1934 3.1934,3.1933 3.1934,-3.1933 z m -2450.17188,3.3809 -3.19335,3.1933 3.19335,3.1934 3.19336,-3.1934 z m -85.26953,0.4961 -3.19336,3.1933 3.19336,3.1934 3.19336,-3.1934 z m 1421.02151,1.1836 -3.1934,3.1933 3.1934,3.1934 3.1933,-3.1934 z m -94.2891,6.0449 -3.1933,3.1933 3.1933,3.1934 3.1914,-3.1934 z m 411.7988,1.4004 -3.1933,3.1933 3.1933,3.1934 3.1934,-3.1934 z m 61.3184,0.5312 -1.9414,1.9414 1.9414,1.9414 1.9414,-1.9414 z m 253.125,5.1992 -2.8066,2.8047 2.8066,2.8086 2.8086,-2.8086 z m -1295.4434,2.8711 -3.1933,3.1934 3.1933,3.1933 3.1934,-3.1933 z m 1597.4082,3.7481 -3.1933,3.1933 3.1933,3.1934 3.1934,-3.1934 z m -1488.0429,0.5136 -1.9414,1.9415 1.9414,1.9414 1.9414,-1.9414 z m 1366.3574,0.016 -3.1934,3.1933 3.1934,3.1934 3.1934,-3.1934 z m -1548.99805,1.7558 -3.19336,3.1934 3.19336,3.1934 3.19336,-3.1934 z m -765.72461,9.9473 -2.80859,2.8086 2.80859,2.8066 2.80664,-2.8066 z m 396.18164,2.5332 -3.19336,3.1934 3.19336,3.1933 3.19336,-3.1933 z m 1230.44722,3.2031 -3.1914,3.1934 3.1914,3.1933 3.1934,-3.1933 z m -1374.57026,1.75 -3.19336,3.1934 3.19336,3.1933 3.19336,-3.1933 z m 352.88672,1.7871 -3.19336,3.1934 3.19336,3.1934 3.19336,-3.1934 z m 1419.21094,0.2149 -3.1934,3.1933 3.1934,3.1934 3.1934,-3.1934 z m -1333.82618,0.7754 -3.19336,3.1933 3.19336,3.1934 3.19336,-3.1934 z m -843.923827,2.6093 -2.80664,2.8086 2.80664,2.8067 2.806641,-2.8067 z m 1322.496107,1.0137 -3.1934,3.1934 3.1934,3.1933 3.1933,-3.1933 z m -1242.33204,3.3145 -3.19336,3.1933 3.19336,3.1934 3.19336,-3.1934 z m 1077.93164,1.2519 -1.9414,1.9414 1.9414,1.9414 1.9414,-1.9414 z m 56.791,0.834 -3.1933,3.1934 3.1933,3.1933 3.1934,-3.1933 z m 283.5606,4.7539 -3.1934,3.1934 3.1934,3.1933 3.1933,-3.1933 z m -875.58403,0.4512 -3.1914,3.1933 3.1914,3.1934 3.19336,-3.1934 z m 407.72653,0.3398 -3.1933,3.1934 3.1933,3.1933 3.1914,-3.1933 z m -718.00582,9.6992 -2.8086,2.8067 2.8086,2.8066 2.80664,-2.8066 z m 1681.30662,2.7051 -3.1933,3.1953 3.1933,3.1914 3.1934,-3.1914 z m -1753.80662,0.1973 -3.19336,3.1934 3.19336,3.1933 3.1914,-3.1933 z m 2166.66602,1.1094 -1.9414,1.9414 1.9414,1.9414 1.9414,-1.9414 z m -315.6445,2.1347 -3.1934,3.1934 3.1934,3.1914 3.1933,-3.1914 z m -515.4063,0.959 -3.1933,3.1914 3.1933,3.1953 3.1934,-3.1953 z m -1402.10155,1.2949 -3.19141,3.1934 3.19141,3.1934 3.19141,-3.1934 z m 1753.57225,1.4454 -1.9414,1.9414 1.9414,1.9414 1.9414,-1.9414 z m 367.291,0.2773 -3.1933,3.1934 3.1933,3.1933 3.1934,-3.1933 z m -1821.95505,1.4629 -2.80664,2.8086 2.80664,2.8066 2.80664,-2.8066 z m 2045.26755,14.1992 -1.9414,1.9414 1.9414,1.9414 1.9414,-1.9414 z m -2153.66598,1.7852 -3.19336,3.1933 3.19336,3.1934 3.19335,-3.1934 z m 928.29298,2.0156 -2.8067,2.8066 2.8067,2.8067 2.8086,-2.8067 z m 576.8496,1.2969 -2.8066,2.8066 2.8066,2.8086 2.8086,-2.8086 z m -1046.04883,0.4882 -3.19336,3.1934 3.19336,3.1934 3.19335,-3.1934 z m 87.23242,7.3731 -3.19336,3.1933 3.19336,3.1934 3.19336,-3.1934 z m 514.97461,0.4629 -3.1934,3.1933 3.1934,3.1934 3.1914,-3.1934 z m 923.957,7.3711 -3.1933,3.1933 3.1933,3.1934 3.1934,-3.1934 z m -667.7324,1.414 -3.1934,3.1934 3.1934,3.1934 3.1934,-3.1934 z m -1140.62695,0.9453 -1.9414,1.9415 1.9414,1.9414 1.94141,-1.9414 z m 602.53325,0.7891 -3.1934,3.1934 3.1934,3.1933 3.1933,-3.1933 z m -429.38286,0.2793 -3.19336,3.1934 3.19336,3.1933 3.19336,-3.1933 z m 1489.80466,5.2402 -3.1933,3.1934 3.1933,3.1934 3.1914,-3.1934 z m -413.664,3.3438 -3.1934,3.1934 3.1934,3.1933 3.1933,-3.1933 z m 996.75,1.0527 -3.1934,3.1934 3.1934,3.1933 3.1933,-3.1933 z m -2639.01566,8.0235 -3.19336,3.1933 3.19336,3.1914 3.19336,-3.1914 z m 1456.96286,1.6445 -3.1933,3.1934 3.1933,3.1914 3.1934,-3.1914 z m -1533.10543,1.6426 -3.19336,3.1933 3.19336,3.1914 3.19335,-3.1914 z m 1291.83003,3.764 -3.1933,3.1934 3.1933,3.1914 3.1934,-3.1914 z m -984.64253,0.6954 -3.19336,3.1933 3.19336,3.1934 3.19335,-3.1934 z m -93.5586,2.4121 -3.19336,3.1933 3.19336,3.1934 3.19336,-3.1934 z m 1780.53323,0.016 -3.1934,3.1934 3.1934,3.1933 3.1914,-3.1933 z m -1031.1934,1.6523 -3.1933,3.1934 3.1933,3.1914 3.1934,-3.1914 z m -603.95506,3.5606 -3.19336,3.1933 3.19336,3.1934 3.19336,-3.1934 z m 1864.14256,0.9101 -2.8066,2.8067 2.8066,2.8066 2.8086,-2.8066 z m -1705.28905,3.1368 -3.19336,3.1933 3.19336,3.1914 3.19336,-3.1914 z m 707.18165,7.9179 -3.1934,3.1934 3.1934,3.1933 3.1934,-3.1933 z m 216.6484,1.8848 -3.1933,3.1934 3.1933,3.1933 3.1934,-3.1933 z m -1477.347625,0.7344 -3.191407,3.1933 3.191407,3.1934 3.193359,-3.1934 z m 804.410155,1.5625 -2.80664,2.8066 2.80664,2.8086 2.80859,-2.8086 z m 1042.92187,3.5293 -3.1934,3.1933 3.1934,3.1934 3.1934,-3.1934 z m -142.4746,2.6308 -3.1934,3.1934 3.1934,3.1933 3.1934,-3.1933 z m 762.9141,0.7344 -3.1934,3.1934 3.1934,3.1933 3.1914,-3.1933 z m -363.0059,1.5312 -1.9414,1.9415 1.9414,1.9414 1.9414,-1.9414 z m -1925.72266,0.6739 -3.19336,3.1933 3.19336,3.1934 3.19336,-3.1934 z m 2014.64646,1.7754 -3.1933,3.1933 3.1933,3.1934 3.1934,-3.1934 z m 152.7227,2.0937 -3.1934,3.1934 3.1934,3.1933 3.1933,-3.1933 z m -1694.93752,1.4004 -3.19336,3.1934 3.19336,3.1933 3.19336,-3.1933 z m 993.20122,2.6992 -3.1934,3.1934 3.1934,3.1933 3.1933,-3.1933 z m -935.81059,6.2461 -3.19336,3.1934 3.19336,3.1914 3.19336,-3.1914 z m -139.08789,1.4317 -3.19336,3.1933 3.19336,3.1934 3.19336,-3.1934 z m 1005.71288,7.8417 -3.1934,3.1953 3.1934,3.1914 3.1934,-3.1914 z m 1221.2481,2.3831 -3.1934,3.1933 3.1934,3.1934 3.1933,-3.1934 z m -1471.4512,0.9066 -3.1934,3.1934 3.1934,3.1933 3.1933,-3.1933 z m 1260.7109,3.9278 -3.1933,3.1933 3.1933,3.1934 3.1934,-3.1934 z m -2208.53709,0.2324 -1.9414,1.9414 1.9414,1.9414 1.94141,-1.9414 z m 772.88279,1.4707 -1.9414,1.9414 1.9414,1.9414 1.9414,-1.9414 z m -1099.48435,0.2226 -3.19336,3.1934 3.19336,3.1934 3.19141,-3.1934 z m 422.21289,1.8731 -2.80664,2.8066 2.80664,2.8086 2.80859,-2.8086 z m 1297.88086,2.3887 -3.1914,3.1914 3.1914,3.1953 3.1934,-3.1953 z m 370.3789,3.0136 -3.1934,3.1934 3.1934,3.1933 3.1934,-3.1933 z m -1079.2441,1.2149 -3.1934,3.1933 3.1934,3.1914 3.1933,-3.1914 z m 1611.625,1.2812 -3.1934,3.1934 3.1934,3.1933 3.1933,-3.1933 z m -2705.052769,1.0528 -3.19336,3.1933 3.19336,3.1934 3.191406,-3.1934 z m 2116.673869,1.0097 -3.1934,3.1934 3.1934,3.1933 3.1933,-3.1933 z m -1571.48246,0.031 -3.19336,3.1933 3.19336,3.1934 3.19336,-3.1934 z m 1703.03126,0.8613 -3.1934,3.1934 3.1934,3.1914 3.1933,-3.1914 z m -2084.55079,0.055 -3.19336,3.1933 3.19336,3.1934 3.1914,-3.1934 z m 58.15039,2.1682 -3.19141,3.1933 3.19141,3.1934 3.19336,-3.1934 z m 117.08984,2.4199 -3.19336,3.1933 3.19336,3.1934 3.19336,-3.1934 z m 2090.22266,2.4453 -3.1934,3.1933 3.1934,3.1934 3.1914,-3.1934 z m -682.0606,0.3555 -3.1933,3.1914 3.1933,3.1933 3.1934,-3.1933 z m -301.7246,1.0703 -3.1933,3.1933 3.1933,3.1934 3.1934,-3.1934 z m -860.36129,0.539 -3.19531,3.1934 3.19531,3.1934 3.19141,-3.1934 z m 1273.46879,5.1446 -3.1934,3.1933 3.1934,3.1934 3.1933,-3.1934 z m 119.1601,1.0664 -3.1933,3.1933 3.1933,3.1934 3.1934,-3.1934 z m 575.1856,6.3218 -3.1934,3.1934 3.1934,3.1914 3.1933,-3.1914 z m -1749.97855,1.8926 -3.19336,3.1934 3.19336,3.1933 3.19336,-3.1933 z m 548.01175,0.9805 -3.1934,3.1933 3.1934,3.1934 3.1933,-3.1934 z m 1129.4726,1.3457 -3.1933,3.1933 3.1933,3.1934 3.1934,-3.1934 z m -1556.7324,10.5469 -3.19336,3.1933 3.19336,3.1934 3.19141,-3.1934 z m 1431.5293,3.8261 -1.9414,1.9414 1.9414,1.9414 1.9414,-1.9414 z m -767.8496,1.4356 -3.1934,3.1933 3.1934,3.1934 3.1933,-3.1934 z m -921.52735,1.4664 -3.19336,3.1933 3.19336,3.1934 3.19336,-3.1934 z m 1056.18945,1.5527 -2.8066,2.8067 2.8066,2.8066 2.8086,-2.8066 z m 337.7383,1.2832 -3.1934,3.1934 3.1934,3.1933 3.1933,-3.1933 z m -1538.90236,1.8421 -2.80664,2.8067 2.80664,2.8066 2.80664,-2.8066 z m 802.58396,4.8032 -3.1933,3.1934 3.1933,3.1934 3.1934,-3.1934 z m -707.29295,0.3457 -3.19336,3.1934 3.19336,3.1934 3.19336,-3.1934 z m 2159.50585,1.1973 -3.1933,3.1934 3.1933,3.1933 3.1914,-3.1933 z m -2513.02343,0.3555 -3.19335,3.1933 3.19335,3.1934 3.19336,-3.1934 z m 1554.20703,1.0547 -3.1934,3.1933 3.1934,3.1934 3.1934,-3.1934 z m -1329.53515,1.3828 -1.94141,1.9414 1.94141,1.9414 1.94141,-1.9414 z m 1412.48435,3.0742 -1.9394,1.9414 1.9394,1.9414 1.9414,-1.9414 z m 293.7246,0.6504 -3.1933,3.1934 3.1933,3.1933 3.1934,-3.1933 z m -2008.73043,3.8672 -3.19141,3.1933 3.19141,3.1934 3.19531,-3.1934 z m 1679.11523,0.4472 -2.8066,2.8067 2.8066,2.8086 2.8086,-2.8086 z m -477.0898,0.9805 -1.9415,1.9414 1.9415,1.9414 1.9414,-1.9414 z m -949.40825,3.9668 -3.19336,3.1934 3.19336,3.1933 3.19336,-3.1933 z m 2020.65625,8.6074 -3.1934,3.1934 3.1934,3.1934 3.1934,-3.1934 z m -1223.3047,1.8223 -1.9414,1.9414 1.9414,1.9414 1.9414,-1.9414 z m 234.1641,0.8242 -3.1934,3.1934 3.1934,3.1933 3.1933,-3.1933 z m 1111.4219,3.3205 -2.8067,2.8067 2.8067,2.8086 2.8085,-2.8086 z m 97.371,1.1797 -3.1933,3.1934 3.1933,3.1933 3.1934,-3.1933 z m -573.9218,1.9238 -3.1934,3.1934 3.1934,3.1934 3.1933,-3.1934 z m -148.7598,7.5372 -3.1934,3.1933 3.1934,3.1914 3.1934,-3.1914 z m -1401.37695,0.021 -1.9414,1.9414 1.9414,1.9415 1.94141,-1.9415 z m 1239.49805,1.8926 -3.1934,3.1934 3.1934,3.1933 3.1934,-3.1933 z m -1710.38477,0.3594 -3.19336,3.1934 3.19336,3.1933 3.19336,-3.1933 z m 1597.58007,0.8301 -3.1933,3.1933 3.1933,3.1914 3.1934,-3.1914 z m -846.80077,1.539 -3.19336,3.1934 3.19336,3.1934 3.19336,-3.1934 z m 2008.84957,2.4571 -2.8086,2.8086 2.8086,2.8066 2.8067,-2.8066 z m -2112.41402,5.123 -3.19336,3.1934 3.19336,3.1914 3.19336,-3.1914 z m -390.80078,3.5508 -3.19336,3.1934 3.19336,3.1933 3.19336,-3.1933 z m 1244.9629,2.5371 -3.1934,3.1934 3.1934,3.1933 3.1933,-3.1933 z m 281.8359,5.0176 -2.8086,2.8086 2.8086,2.8066 2.8067,-2.8066 z m 504.3086,1.6324 -3.1933,3.1934 3.1933,3.1933 3.1934,-3.1933 z m -296.1543,0.7578 -2.8066,2.8066 2.8066,2.8086 2.8086,-2.8086 z m -560.8847,0.2891 -3.1934,3.1933 3.1934,3.1934 3.1933,-3.1934 z m -1055.45708,1.7871 -3.19335,3.1933 3.19335,3.1934 3.19141,-3.1934 z m 885.84178,0.2383 -3.1933,3.1933 3.1933,3.1934 3.1934,-3.1934 z m -1161.68357,1.0781 -3.19336,3.1933 3.19336,3.1934 3.19336,-3.1934 z m 1082.39457,8.5 -3.1934,3.1933 3.1934,3.1934 3.1933,-3.1934 z m -625.71879,5.7053 -1.94141,1.9414 1.94141,1.9414 1.94141,-1.9414 z m -223.63867,0.5117 -3.19336,3.1933 3.19336,3.1934 3.19336,-3.1934 z m 981.95706,0.8086 -3.1934,3.1933 3.1934,3.1934 3.1933,-3.1934 z m -901.52542,1.1601 -3.19336,3.1934 3.19336,3.1933 3.19336,-3.1933 z m 1618.33592,1.8692 -3.1914,3.1933 3.1914,3.1934 3.1934,-3.1934 z m -1857.3828,4.6699 -3.19336,3.1934 3.19336,3.1933 3.19336,-3.1933 z m 1770.7598,1.5918 -3.1934,3.1933 3.1934,3.1934 3.1933,-3.1934 z m -390.6465,5.3965 -3.1934,3.1933 3.1934,3.1914 3.1933,-3.1914 z m -653.9414,2.1992 -3.1934,3.1934 3.1934,3.1933 3.1933,-3.1933 z m -415.15432,3.7851 -3.19336,3.1934 3.19336,3.1934 3.19336,-3.1934 z m 1279.16212,2.4649 -1.9414,1.9414 1.9414,1.9414 1.9414,-1.9414 z m -1344.94337,8.5391 -3.19336,3.1933 3.19336,3.1934 3.19336,-3.1934 z m 587.37307,1.2441 -3.1934,3.1934 3.1934,3.1933 3.1933,-3.1933 z m 641.1386,0.6226 -2.8066,2.8067 2.8066,2.8066 2.8067,-2.8066 z m 721.5372,1.67 -3.1914,3.1933 3.1914,3.1934 3.1933,-3.1934 z m 311.0058,0.8511 -3.1933,3.1934 3.1933,3.1933 3.1934,-3.1933 z m -1505.1777,4.3516 -1.9414,1.9414 1.9414,1.9414 1.9414,-1.9414 z m 1378.8281,2.0586 -2.8066,2.8086 2.8066,2.8066 2.8066,-2.8066 z m -1987.98827,1.6035 -3.19336,3.1934 3.19336,3.1933 3.19336,-3.1933 z m 1348.30277,0.8301 -3.1934,3.1933 3.1934,3.1934 3.1933,-3.1934 z m -1131.36527,0.051 -1.94141,1.9414 1.94141,1.9414 1.9414,-1.9414 z m -677.26367,4.8632 -3.19336,3.1934 3.19336,3.1934 3.19336,-3.1934 z m 1619.61324,0.014 -3.1933,3.1934 3.1933,3.1933 3.1934,-3.1933 z m -372.8379,0.061 -3.1933,3.1933 3.1933,3.1934 3.1934,-3.1934 z m 848.6407,5.1993 -3.1934,3.1934 3.1934,3.1933 3.1933,-3.1933 z m -1839.12698,1.2891 -3.19336,3.1933 3.19336,3.1934 3.19336,-3.1934 z m 294.50586,1.4258 -3.19336,3.1933 3.19336,3.1934 3.19336,-3.1934 z m -612.2461,0.7011 -3.19336,3.1934 3.19336,3.1934 3.19336,-3.1934 z m -121.976559,0.4942 -3.193359,3.1933 3.193359,3.1914 3.19336,-3.1914 z m 300.523439,2.4238 -3.19336,3.1934 3.19336,3.1933 3.19336,-3.1933 z m 1024.45504,1.6268 -3.1933,3.1933 3.1933,3.1934 3.1934,-3.1934 z m 580.6387,3.5078 -3.1934,3.1933 3.1934,3.1934 3.1934,-3.1934 z m -1544.60351,0.7812 -3.19336,3.1934 3.19336,3.1933 3.19336,-3.1933 z m 1858.78121,4.3399 -3.1933,3.1933 3.1933,3.1934 3.1934,-3.1934 z m -626.58,0.057 -3.1934,3.1934 3.1934,3.1933 3.1914,-3.1933 z m -898.87113,1.6113 -3.19336,3.1934 3.19336,3.1934 3.19336,-3.1934 z m 1400.81253,2.4861 -3.1934,3.1933 3.1934,3.1934 3.1933,-3.1934 z m -594.3848,0.6367 -3.1934,3.1933 3.1934,3.1934 3.1934,-3.1934 z m 848.457,2.5566 -3.1914,3.1934 3.1914,3.1933 3.1953,-3.1933 z m -1150.4414,7.3926 -3.1933,3.1934 3.1933,3.1933 3.1934,-3.1933 z m 635.6895,2.2832 -3.1934,3.1934 3.1934,3.1914 3.1933,-3.1914 z m -1646.81252,4.291 -3.19336,3.1934 3.19336,3.1933 3.19336,-3.1933 z m 349.89063,2.9922 -3.19336,3.1934 3.19336,3.1933 3.19141,-3.1933 z m 1212.24999,1.5195 -3.1934,3.1934 3.1934,3.1934 3.1934,-3.1934 z m -112.5508,4.1621 -3.1933,3.1934 3.1933,3.1934 3.1934,-3.1934 z m 532.8008,0.7696 -3.1934,3.1933 3.1934,3.1934 3.1934,-3.1934 z m 233.6719,1.2383 -3.1934,3.1933 3.1934,3.1914 3.1933,-3.1914 z m 288.5996,2.8046 -3.1914,3.1934 3.1914,3.1934 3.1934,-3.1934 z m -2229.00587,0.377 -3.19336,3.1934 3.19336,3.1914 3.19336,-3.1914 z m -419.949215,3.6875 -3.193359,3.1934 3.193359,3.1933 3.19336,-3.1933 z m 2215.289085,0.9063 -3.1934,3.1933 3.1934,3.1934 3.1933,-3.1934 z m -1574.66799,10.4531 -2.80859,2.8086 2.80859,2.8066 2.80664,-2.8066 z m -576.36719,0.582 -3.19336,3.1934 3.19336,3.1933 3.19336,-3.1933 z m 528.0918,1.1328 -3.19336,3.1934 3.19336,3.1914 3.19336,-3.1914 z m 981.79098,0.2424 -3.1933,3.1933 3.1933,3.1934 3.1934,-3.1934 z m -825.53708,0.33 -3.19335,3.1934 3.19335,3.1934 3.19336,-3.1934 z m 636.80858,0.1504 -3.1933,3.1934 3.1933,3.1933 3.1934,-3.1933 z m -1159.15428,1.0567 -1.9414,1.9414 1.9414,1.9414 1.94141,-1.9414 z m 1077.59768,3.6113 -3.1934,3.1934 3.1934,3.1933 3.1933,-3.1933 z m 1166.9453,0.8711 -3.1934,3.1933 3.1934,3.1934 3.1933,-3.1934 z m -818.1875,4.123 -1.9414,1.9414 1.9414,1.9414 1.9414,-1.9414 z m -736.0176,4.9766 -3.19335,3.1934 3.19335,3.1933 3.1934,-3.1933 z m 1763.1953,1.4258 -2.8086,2.8086 2.8086,2.8066 2.8067,-2.8066 z m -1863.40623,0.4355 -1.9414,1.9414 1.9414,1.9414 1.94141,-1.9414 z m -515.27343,1.0469 -3.19336,3.1934 3.19336,3.1933 3.1914,-3.1933 z m 2012.26956,0.9375 -3.1934,3.1934 3.1934,3.1933 3.1933,-3.1933 z m -1638.21878,0.9102 -3.19531,3.1933 3.19531,3.1914 3.19336,-3.1914 z m -566.21289,5.0781 -2.80664,2.8066 2.80664,2.8067 2.80664,-2.8067 z m 1418.63087,1.0722 -3.1934,3.1934 3.1934,3.1934 3.1933,-3.1934 z m 1084.1953,2.1524 -3.1914,3.1933 3.1914,3.1934 3.1934,-3.1934 z m -378.4863,4.918 -1.9414,1.9414 1.9414,1.9414 1.9414,-1.9414 z m -103.4688,0.3027 -3.1933,3.1934 3.1933,3.1933 3.1914,-3.1933 z m -683.9394,0.8379 -3.1914,3.1933 3.1914,3.1934 3.1933,-3.1934 z m 584.8105,2.3183 -3.1933,3.1934 3.1933,3.1934 3.1934,-3.1934 z m -459.5137,0.9102 -3.1933,3.1934 3.1933,3.1914 3.1934,-3.1914 z m -1188.28902,0.4922 -3.19336,3.1933 3.19336,3.1934 3.19336,-3.1934 z m 775.27542,2.416 -3.1934,3.1934 3.1934,3.1933 3.1933,-3.1933 z m -1161.86331,1.8418 -2.80664,2.8066 2.80664,2.8067 2.806641,-2.8067 z m 1011.75781,1.1758 -3.1934,3.1933 3.1934,3.1934 3.1934,-3.1934 z m 1371.9102,0.9297 -3.1934,3.1933 3.1934,3.1934 3.1933,-3.1934 z m -1860.20512,1.7011 -3.19141,3.1934 3.19141,3.1934 3.19336,-3.1934 z m 1152.66212,0.92 -1.9414,1.9414 1.9414,1.9414 1.9414,-1.9414 z m -58.5274,0.6855 -3.1933,3.1934 3.1933,3.1933 3.1934,-3.1933 z m 234.8731,9.6484 -2.8066,2.8086 2.8066,2.8067 2.8066,-2.8067 z m -508.5938,0.4649 -2.8066,2.8086 2.8066,2.8066 2.8067,-2.8066 z m 1451.3711,4.1777 -1.9414,1.9414 1.9414,1.9414 1.9414,-1.9414 z m -1241.2226,0.3848 -3.1934,3.1933 3.1934,3.1915 3.1933,-3.1915 z m 1005.5195,0.8379 -3.1933,3.1933 3.1933,3.1934 3.1934,-3.1934 z m -625.9941,1.6035 -3.1914,3.1934 3.1914,3.1933 3.1933,-3.1933 z m -188.6426,0.1328 -2.8086,2.8086 2.8086,2.8066 2.8066,-2.8066 z m -1139.75977,0.8691 -3.19336,3.1934 3.19336,3.1934 3.1914,-3.1934 z m 672.63667,0.9864 -3.1933,3.1933 3.1933,3.1934 3.1934,-3.1934 z m 1450.3243,1.9839 -3.1934,3.1933 3.1934,3.1914 3.1933,-3.1914 z m -2628.99222,1.4902 -1.94141,1.9414 1.94141,1.9414 1.9414,-1.9414 z m 567.40429,2.0996 -3.19335,3.1934 3.19335,3.1914 3.19336,-3.1914 z m 127.5625,0.6449 -3.19335,3.1934 3.19335,3.1933 3.19336,-3.1933 z m 91.1836,1.75 -3.19336,3.1934 3.19336,3.1933 3.19336,-3.1933 z m 1424.61723,3.0196 -1.9415,1.9414 1.9415,1.9414 1.9414,-1.9414 z m -1957.35356,4.4941 -3.19336,3.1934 3.19336,3.1933 3.19141,-3.1933 z m -306.87695,0.6055 -1.94141,1.9414 1.94141,1.9414 1.9414,-1.9414 z m 2140.10151,0.7636 -3.1933,3.1934 3.1933,3.1934 3.1934,-3.1934 z m -1445.47456,4.3653 -3.19336,3.1933 3.19336,3.1934 3.19141,-3.1934 z m 1383.97456,7.3535 -3.1933,3.1933 3.1933,3.1934 3.1934,-3.1934 z m -1704.5312,0.084 -3.19336,3.1933 3.19336,3.1934 3.19336,-3.1934 z m 90.27734,0.2343 -3.19336,3.1934 3.19336,3.1934 3.19336,-3.1934 z m 927.86326,0.5782 -3.1933,3.1933 3.1933,3.1934 3.1934,-3.1934 z m 1276.0957,2.4765 -3.1933,3.1934 3.1933,3.1933 3.1934,-3.1933 z m -665.5273,5.6895 -3.1934,3.1933 3.1934,3.1934 3.1933,-3.1934 z m -540.9903,2.5 -3.1914,3.1933 3.1914,3.1934 3.1934,-3.1934 z m 79.9336,0.7402 -3.1933,3.1934 3.1933,3.1933 3.1934,-3.1933 z m 1161.3633,3.8711 -2.8066,2.8086 2.8066,2.8066 2.8067,-2.8066 z m -2601.12498,0 -1.9414,1.9414 1.9414,1.9414 1.94141,-1.9414 z m -168.470699,0.1016 -3.193359,3.1933 3.193359,3.1934 3.19336,-3.1934 z m 2276.275379,7.7734 -3.1933,3.1934 3.1933,3.1933 3.1914,-3.1933 z m -1415.13085,3.2266 -1.9414,1.9414 1.9414,1.9414 1.94141,-1.9414 z m 1833.91015,2.6133 -3.1934,3.1933 3.1934,3.1934 3.1914,-3.1934 z m -268.4551,1.1582 -3.1933,3.1933 3.1933,3.1934 3.1934,-3.1934 z m -2121.93942,0.3398 -3.19336,3.1934 3.19336,3.1933 3.19336,-3.1933 z m -88.56641,1.918 -3.1914,3.1933 3.1914,3.1934 3.19336,-3.1934 z m 1005.10153,0.1699 -3.1933,3.1934 3.1933,3.1914 3.1934,-3.1914 z m 202.7657,2.5332 -1.9414,1.9414 1.9414,1.9414 1.9414,-1.9414 z m 934.8105,2.4082 -3.1934,3.1934 3.1934,3.1933 3.1934,-3.1933 z m -1415.8672,1.9961 -3.1933,3.1934 3.1933,3.1933 3.1914,-3.1933 z m 1549.2754,0.4316 -3.1934,3.1934 3.1934,3.1934 3.1934,-3.1934 z m -493.6894,1.8848 -2.8067,2.8086 2.8067,2.8066 2.8066,-2.8066 z m -998.0196,1.2346 -1.9414,1.9414 1.9414,1.9414 1.9414,-1.9414 z m 1722.6875,0.066 -3.1933,3.1933 3.1933,3.1934 3.1914,-3.1934 z m -830.3183,1.9668 -3.1934,3.1933 3.1934,3.1934 3.1933,-3.1934 z m -1083.6348,2.8164 -3.19336,3.1933 3.19336,3.1934 3.19336,-3.1934 z m -99.45313,1.3516 -3.19335,3.1933 3.19335,3.1934 3.19336,-3.1934 z m 1483.79683,1.2679 -3.1933,3.1934 3.1933,3.1933 3.1915,-3.1933 z m -1554.12886,1.3184 -3.19336,3.1933 3.19336,3.1934 3.19141,-3.1934 z m 1971.57616,0.029 -3.1933,3.1933 3.1933,3.1934 3.1934,-3.1934 z m -2523.10741,0.2148 -2.80664,2.8067 2.80664,2.8066 2.80664,-2.8066 z m 1024.84761,2.352 -3.1914,3.1934 3.1914,3.1933 3.1934,-3.1933 z m 1004.5508,2.2776 -3.1933,3.1934 3.1933,3.1934 3.1934,-3.1934 z m -343.5879,0.01 -3.1933,3.1934 3.1933,3.1933 3.1934,-3.1933 z m -460.0664,0.615 -3.1914,3.1934 3.1914,3.1934 3.1934,-3.1934 z m 1457.543,3.1328 -3.1934,3.1934 3.1934,3.1934 3.1934,-3.1934 z m -2297.30078,1.4375 -3.19336,3.1934 3.19336,3.1934 3.19336,-3.1934 z m -463.068358,1.5528 -3.191406,3.1933 3.191406,3.1934 3.193359,-3.1934 z m 1483.529338,3.8594 -3.1934,3.1933 3.1934,3.1934 3.1914,-3.1934 z m 1311.8339,2.1875 -3.1933,3.1933 3.1933,3.1934 3.1934,-3.1934 z m -62.0253,0.084 -3.1934,3.1934 3.1934,3.1934 3.1933,-3.1934 z m -1153.4043,5.5586 -3.1934,3.1953 3.1934,3.1934 3.1914,-3.1934 z m 1100.3789,3.6953 -3.1934,3.1934 3.1934,3.1934 3.1933,-3.1934 z m -1010.5996,0.8301 -3.1934,3.1934 3.1934,3.1933 3.1933,-3.1933 z m -320.2149,3.9121 -1.9414,1.9414 1.9414,1.9414 1.9414,-1.9414 z m 446.7676,2.4121 -3.1934,3.1934 3.1934,3.1934 3.1933,-3.1934 z m -857.127,2.752 -3.1933,3.1934 3.1933,3.1933 3.1934,-3.1933 z m 1052.4278,1.7773 -3.1934,3.1934 3.1934,3.1934 3.1933,-3.1934 z m -1718.42777,0.7207 -3.19336,3.1934 3.19336,3.1934 3.19141,-3.1934 z m 1630.23637,1.8145 -3.1934,3.1934 3.1934,3.1933 3.1933,-3.1933 z m 568.0351,4.4551 -3.1933,3.1933 3.1933,3.1934 3.1934,-3.1934 z m -110.584,2.2812 -3.1914,3.1934 3.1914,3.1933 3.1934,-3.1933 z m -926.7558,0.1621 -3.1934,3.1934 3.1934,3.1934 3.1933,-3.1934 z m 406.9023,1.7367 -3.1933,3.1933 3.1933,3.1934 3.1934,-3.1934 z m -574.3711,0.2109 -3.1933,3.1934 3.1933,3.1933 3.1934,-3.1933 z m -106.666,0.2598 -3.1934,3.1933 3.1934,3.1934 3.1934,-3.1934 z m -640.98241,6.1191 -1.94141,1.9414 1.94141,1.9414 1.9414,-1.9414 z m 2277.06831,3.6055 -3.1914,3.1933 3.1914,3.1934 3.1934,-3.1934 z m -62.0175,1.6738 -3.1934,3.1934 3.1934,3.1933 3.1933,-3.1933 z m -1717.8633,0.074 -3.1934,3.1934 3.1934,3.1933 3.1933,-3.1933 z m -655.03322,0.2226 -3.19336,3.1933 3.19336,3.1934 3.19336,-3.1934 z m 1837.36912,0 -1.9414,1.9414 1.9414,1.9414 1.9414,-1.9414 z m -1557.34177,1.7773 -3.19336,3.1934 3.19336,3.1933 3.1914,-3.1933 z m 564.57027,2.5669 -3.1933,3.1914 3.1933,3.1954 3.1934,-3.1954 z m -317.73824,0.1993 -3.19141,3.1933 3.19141,3.1914 3.19531,-3.1914 z m -922.076173,0.5156 -3.193359,3.1933 3.193359,3.1934 3.193359,-3.1934 z m 1562.867213,0.334 -3.1934,3.1933 3.1934,3.1934 3.1933,-3.1934 z m 1256.3027,7.8027 -3.1934,3.1934 3.1934,3.1933 3.1934,-3.1933 z m -698.5547,0.207 -3.1933,3.1934 3.1933,3.1933 3.1934,-3.1933 z m -2078.617166,1.9258 -2.806641,2.8067 2.806641,2.8085 2.808594,-2.8085 z m 1621.498066,2.5371 -3.1934,3.1934 3.1934,3.1933 3.1933,-3.1933 z m 309.4844,8.5645 -3.1934,3.1933 3.1934,3.1934 3.1933,-3.1934 z m -1852.13676,3.5293 -3.19141,3.1933 3.19141,3.1953 3.1914,-3.1953 z m 695.65234,0.6543 -3.19336,3.1933 3.19336,3.1934 3.19336,-3.1934 z m 1861.91402,1.2519 -1.9414,1.9414 1.9414,1.9414 1.9414,-1.9414 z m -2505.12691,3.5215 -3.19336,3.1934 3.19336,3.1933 3.19336,-3.1933 z m 1229.40821,1.7676 -3.1934,3.1933 3.1934,3.1934 3.1914,-3.1934 z m 1386.8906,0.8183 -3.1933,3.1954 3.1933,3.1933 3.1914,-3.1933 z m -909.8437,0.5957 -3.1934,3.1934 3.1934,3.1934 3.1933,-3.1934 z m 677.3515,3.7403 -3.1933,3.1933 3.1933,3.1934 3.1934,-3.1934 z m -255.4922,0.088 -3.1933,3.1933 3.1933,3.1934 3.1934,-3.1934 z m -267.8632,13.209 -1.9414,1.9414 1.9414,1.9414 1.9414,-1.9414 z m -838.1231,1.7343 -1.9414,1.9414 1.9414,1.9414 1.9414,-1.9414 z m -1135.94725,1.5528 -3.19336,3.1933 3.19336,3.1934 3.19336,-3.1934 z m 1208.97265,1.5468 -3.1934,3.1934 3.1934,3.1934 3.1934,-3.1934 z m 494.2949,2.9512 -2.8066,2.8067 2.8066,2.8085 2.8086,-2.8085 z m -1296.90818,1.4297 -3.19335,3.1934 3.19335,3.1933 3.19336,-3.1933 z m 1025.78908,4.1621 -3.1934,3.1934 3.1934,3.1933 3.1933,-3.1933 z m -729.10353,0.8516 -3.19336,3.1933 3.19336,3.1934 3.19336,-3.1934 z m 1623.31643,2.4316 -3.1934,3.1934 3.1934,3.1933 3.1933,-3.1933 z m 366.4492,0.5938 -3.1914,3.1933 3.1914,3.1934 3.1934,-3.1934 z m -1027.5996,5.6074 -2.8067,2.8066 2.8067,2.8067 2.8086,-2.8067 z m 221.1406,0.373 -3.1933,3.1934 3.1933,3.1933 3.1914,-3.1933 z m -1750.64061,3.9629 -3.19336,3.1934 3.19336,3.1914 3.19336,-3.1914 z m 1683.33791,2.2656 -3.1934,3.1934 3.1934,3.1934 3.1933,-3.1934 z m -1772.50588,6.1719 -3.19336,3.1914 3.19336,3.1953 3.19336,-3.1953 z m 432.49414,0.8067 -2.80664,2.8066 2.80664,2.8066 2.80859,-2.8066 z m 1032.91214,1.1367 -3.1934,3.1933 3.1934,3.1934 3.1933,-3.1934 z m 411.7168,1.209 -2.8067,2.8066 2.8067,2.8066 2.8066,-2.8066 z m -1986.740269,1.623 -3.191406,3.1934 3.191406,3.1933 3.193359,-3.1933 z m 960.423829,0.8003 -3.19336,3.1934 3.19336,3.1933 3.19141,-3.1933 z m -285.80469,0.7051 -3.19336,3.1933 3.19336,3.1914 3.19141,-3.1914 z m -401.86719,0.4922 -3.19336,3.1933 3.19336,3.1934 3.19336,-3.1934 z m 558.64649,1.0175 -3.19336,3.1934 3.19336,3.1934 3.19336,-3.1934 z m 997.57223,1.3106 -3.1933,3.1933 3.1933,3.1934 3.1934,-3.1934 z m 985.3418,1.4297 -3.1933,3.1933 3.1933,3.1934 3.1934,-3.1934 z m -126.9668,4.8418 -3.1933,3.1933 3.1933,3.1934 3.1934,-3.1934 z m -1574.8711,0.8886 -3.1914,3.1934 3.1914,3.1934 3.1934,-3.1934 z m 237.8477,0.1426 -2.8066,2.8067 2.8066,2.8066 2.8066,-2.8066 z m 756.4102,3.7227 -3.1915,3.1914 3.1915,3.1933 3.1953,-3.1933 z m -2042.326219,4.5156 -3.191406,3.1934 3.191406,3.1933 3.193359,-3.1933 z m 2663.382819,5.9707 -3.1934,3.1934 3.1934,3.1933 3.1934,-3.1933 z m -148.2109,0.1738 -3.1934,3.1934 3.1934,3.1933 3.1914,-3.1933 z m -2174.3145,0.4336 -1.9414,1.9414 1.9414,1.9414 1.94141,-1.9414 z m 1527.9004,3.3711 -3.1914,3.1934 3.1914,3.1933 3.1934,-3.1933 z m -150.9356,0.2285 -3.1933,3.1934 3.1933,3.1934 3.1934,-3.1934 z m -1280.91792,1.7442 -3.19336,3.1933 3.19336,3.1934 3.19336,-3.1934 z m 1977.80862,0.5156 -3.1934,3.1934 3.1934,3.1914 3.1933,-3.1914 z m -154.7617,3.3262 -3.1934,3.1933 3.1934,3.1934 3.1933,-3.1934 z m -703.9493,1.5488 -3.1933,3.1934 3.1933,3.1933 3.1934,-3.1933 z m 277.045,6.0312 -3.1934,3.1934 3.1934,3.1934 3.1933,-3.1934 z m -1750.95903,6.5954 -3.19336,3.1933 3.19336,3.1934 3.19336,-3.1934 z m 423.02344,2.3962 -3.19336,3.1934 3.19336,3.1934 3.19336,-3.1934 z m 729.37699,0.2793 -2.8067,2.8067 2.8067,2.8066 2.8066,-2.8066 z m -86.3536,1.2129 -1.9414,1.9414 1.9414,1.9414 1.9415,-1.9414 z m -296.27925,1.3104 -3.19336,3.1933 3.19336,3.1934 3.19141,-3.1934 z m -707.19922,5.9336 -3.19141,3.1933 3.19141,3.1934 3.19336,-3.1934 z m 2406.68947,1.2109 -3.1934,3.1934 3.1934,3.1933 3.1933,-3.1933 z m -1846.85548,4.6406 -3.19336,3.1934 3.19336,3.1933 3.19335,-3.1933 z m 667.07228,1.3516 -2.8086,2.8086 2.8086,2.8066 2.8066,-2.8066 z m -582.44924,0.9863 -3.19336,3.1934 3.19336,3.1933 3.19336,-3.1933 z m 1805.77934,3.9215 -3.1934,3.1934 3.1934,3.1933 3.1933,-3.1933 z m -1123.7247,3.2012 -3.1933,3.1933 3.1933,3.1934 3.1934,-3.1934 z m 666.1817,0.3222 -3.1934,3.1934 3.1934,3.1914 3.1933,-3.1914 z m -452.6992,1.3301 -3.1934,3.1934 3.1934,3.1933 3.1933,-3.1933 z m 220.5879,0.7246 -3.1914,3.1934 3.1914,3.1933 3.1933,-3.1933 z m -612.6602,0.6192 -2.8066,2.8066 2.8066,2.8066 2.8066,-2.8066 z m 478.9414,0.9435 -3.1933,3.1934 3.1933,3.1933 3.1914,-3.1933 z m -825.043,5.1094 -3.1933,3.1934 3.1933,3.1933 3.1954,-3.1933 z m 1592.4727,1.541 -2.8086,2.8086 2.8086,2.8066 2.8066,-2.8066 z m 120.5039,1.0508 -3.1934,3.1933 3.1934,3.1934 3.1934,-3.1934 z m -2644.67578,4.5644 -1.9414,1.9414 1.9414,1.9415 1.94141,-1.9415 z" /></g></svg>
