<?xml version="1.0" encoding="UTF-8" standalone="no"?>
<!-- Created with Inkscape (http://www.inkscape.org/) -->

<svg
   width="1920"
   height="1080"
   viewBox="0 0 1920.0003 1080.0001"
   version="1.1"
   id="svg8"
   inkscape:version="1.2.2 (b0a8486541, 2022-12-01)"
   sodipodi:docname="stars1_2023b.svg"
   xml:space="preserve"
   xmlns:inkscape="http://www.inkscape.org/namespaces/inkscape"
   xmlns:sodipodi="http://sodipodi.sourceforge.net/DTD/sodipodi-0.dtd"
   xmlns="http://www.w3.org/2000/svg"
   xmlns:svg="http://www.w3.org/2000/svg"
   xmlns:rdf="http://www.w3.org/1999/02/22-rdf-syntax-ns#"
   xmlns:cc="http://creativecommons.org/ns#"
   xmlns:dc="http://purl.org/dc/elements/1.1/"><defs
     id="defs2"><clipPath
       clipPathUnits="userSpaceOnUse"
       id="clipPath290923"><rect
         style="opacity:0.7;fill:#2f6b5a;fill-opacity:1;fill-rule:evenodd;stroke:none;stroke-width:2.70918;stroke-linecap:round;stroke-linejoin:round;stroke-miterlimit:4;stroke-dasharray:none;stroke-opacity:1;paint-order:markers fill stroke"
         id="rect290925"
         width="309.65643"
         height="170.30928"
         x="-358.01489"
         y="775.27844" /></clipPath><clipPath
       clipPathUnits="userSpaceOnUse"
       id="clipPath292441"><rect
         style="opacity:0.7;fill:#ffffff;fill-opacity:1;fill-rule:evenodd;stroke:none;stroke-width:4.18763;stroke-linecap:round;stroke-linejoin:round;stroke-miterlimit:4;stroke-dasharray:none;stroke-opacity:1;paint-order:markers fill stroke"
         id="rect292443"
         width="478.64374"
         height="263.22327"
         x="-510.89438"
         y="765.67975" /></clipPath></defs><sodipodi:namedview
     id="base"
     pagecolor="#525252"
     bordercolor="#404040"
     borderopacity="1"
     inkscape:pageopacity="0"
     inkscape:pageshadow="2"
     inkscape:zoom="0.16"
     inkscape:cx="3262.5"
     inkscape:cy="981.25"
     inkscape:document-units="px"
     inkscape:current-layer="layer1"
     showgrid="false"
     inkscape:window-width="1914"
     inkscape:window-height="1047"
     inkscape:window-x="1923"
     inkscape:window-y="3"
     inkscape:window-maximized="0"
     inkscape:pagecheckerboard="0"
     units="px"
     fit-margin-top="0"
     fit-margin-left="0"
     fit-margin-right="0"
     fit-margin-bottom="0"
     inkscape:showpageshadow="0"
     inkscape:deskcolor="#525252"
     showguides="true" /><metadata
     id="metadata5"><rdf:RDF><cc:Work
         rdf:about=""><dc:format>image/svg+xml</dc:format><dc:type
           rdf:resource="http://purl.org/dc/dcmitype/StillImage" /></cc:Work></rdf:RDF></metadata><g
     inkscape:label="Layer 1"
     inkscape:groupmode="layer"
     id="layer1"
     transform="translate(-30.999837,5898.3692)"><path
       id="path2261"
       style="fill:#ffff7f;fill-opacity:0.8;stroke-width:0.383116"
       d="m 1017.2733,-5898.3692 -1.3848,12.5235 -12.5234,1.3847 12.5234,1.3848 1.3848,12.5234 1.3847,-12.5234 12.5235,-1.3848 -12.5235,-1.3847 z m -116.25198,13.1038 -1.38281,12.5235 -12.52539,1.3847 12.52539,1.3848 1.38281,12.5234 1.38477,-12.5234 12.52343,-1.3848 -12.52343,-1.3847 z m -273.21875,4.1348 -1.38476,12.5254 -12.52344,1.3848 12.52344,1.3847 1.38476,12.5235 1.38477,-12.5235 12.52343,-1.3847 -12.52343,-1.3848 z m 577.62693,2.2227 -1.3847,12.5234 -12.5235,1.3848 12.5235,1.3847 1.3847,12.5235 1.3848,-12.5235 12.5234,-1.3847 -12.5234,-1.3848 z m -685.53904,0.871 -1.38281,12.5235 -12.52539,1.3848 12.52539,1.3847 1.38281,12.5235 1.38672,-12.5235 12.52149,-1.3847 -12.52149,-1.3848 z m 829.02344,11.4532 -1.2188,11.0097 -11.0078,1.2168 11.0078,1.2168 1.2188,11.0098 1.2168,-11.0098 11.0078,-1.2168 -11.0078,-1.2168 z m -1101.03711,11.7461 -1.21875,11.0097 -11.00781,1.2168 11.00781,1.2168 1.21875,11.0098 1.2168,-11.0098 11.00781,-1.2168 -11.00781,-1.2168 z m 556.62891,0.1562 -1.38477,12.5235 -12.52344,1.3847 12.52344,1.3848 1.38477,12.5234 1.38476,-12.5234 12.52344,-1.3848 -12.52344,-1.3847 z m -115.67774,2.6485 -1.38476,12.5253 -12.52344,1.3848 12.52344,1.3828 1.38476,12.5254 1.38477,-12.5254 12.52344,-1.3828 -12.52344,-1.3848 z m 594.38674,3.6796 -1.3848,12.5235 -12.5234,1.3847 12.5234,1.3848 1.3848,12.5234 1.3828,-12.5234 12.5254,-1.3848 -12.5254,-1.3847 z m -821.38869,1.916 -1.38477,12.5234 -12.52343,1.3848 12.52343,1.3847 1.38477,12.5235 1.38281,-12.5235 12.52539,-1.3847 -12.52539,-1.3848 z m 1002.07419,5.4456 -1.3847,12.5234 -12.5235,1.3848 12.5235,1.3847 1.3847,12.5235 1.3848,-12.5235 12.5234,-1.3847 -12.5234,-1.3848 z m -720.61911,5.6758 -1.38477,12.5253 -12.52344,1.3848 12.52344,1.3828 1.38477,12.5254 1.38476,-12.5254 12.52344,-1.3828 -12.52344,-1.3848 z m 348.02341,1.6074 -1.3847,12.5254 -12.5235,1.3847 12.5235,1.3828 1.3847,12.5254 1.3848,-12.5254 12.5234,-1.3828 -12.5234,-1.3847 z m -756.89451,9.2461 -1.38476,12.5234 -12.52344,1.3848 12.52344,1.3847 1.38476,12.5235 1.38282,-12.5235 12.52539,-1.3847 -12.52539,-1.3848 z m 1067.31641,2.0683 -1.3848,12.5254 -12.5234,1.3848 12.5234,1.3828 1.3848,12.5254 1.3848,-12.5254 12.5234,-1.3828 -12.5234,-1.3848 z m -990.28516,16.4004 -1.38476,12.5254 -12.52344,1.3848 12.52344,1.3828 1.38476,12.5254 1.38477,-12.5254 12.52344,-1.3828 -12.52344,-1.3848 z m 1514.62106,17.3945 -1.3847,12.5215 -12.5235,1.3868 12.5235,1.3828 1.3847,12.5254 1.3848,-12.5254 12.5234,-1.3828 -12.5234,-1.3868 z m -1288.66403,2.7632 -1.38281,12.5254 -12.52344,1.3848 12.52344,1.3847 1.38281,12.5235 1.38672,-12.5235 12.52344,-1.3847 -12.52344,-1.3848 z m 891.82033,24.1133 -1.3848,12.5234 -12.5234,1.3848 12.5234,1.3848 1.3848,12.5254 1.3848,-12.5254 12.5234,-1.3848 -12.5234,-1.3848 z m -1384.99415,5.6992 -1.38477,12.5254 -12.52344,1.3848 12.52344,1.3847 1.38477,12.5235 1.38476,-12.5235 12.52344,-1.3847 -12.52344,-1.3848 z m 1100.78715,2.3574 -1.3848,12.5254 -12.5234,1.3828 12.5234,1.3848 1.3848,12.5254 1.3867,-12.5254 12.5215,-1.3848 -12.5215,-1.3828 z m -280.94536,4.834 -1.38476,12.5235 -12.52344,1.3847 12.52344,1.3848 1.38476,12.5254 1.38672,-12.5254 12.52344,-1.3848 -12.52344,-1.3847 z m 467.49216,3.1367 -1.3847,12.5254 -12.5235,1.3828 12.5235,1.3848 1.3847,12.5254 1.3848,-12.5254 12.5234,-1.3848 -12.5234,-1.3828 z m 197.4395,10.8184 -1.3848,12.5234 -12.5234,1.3848 12.5234,1.3848 1.3848,12.5234 1.3847,-12.5234 12.5235,-1.3848 -12.5235,-1.3848 z m -1101.85158,3.0215 -0.83984,7.6133 -7.61524,0.8418 7.61524,0.8418 0.83984,7.6152 0.8418,-7.6152 7.61523,-0.8418 -7.61523,-0.8418 z m 197.15235,0.5254 -1.38477,12.5254 -12.52344,1.3847 12.52344,1.3828 1.38477,12.5254 1.38476,-12.5254 12.52344,-1.3828 -12.52344,-1.3847 z m -370.62891,9.7871 -0.83984,7.6133 -7.61524,0.8418 7.61524,0.8418 0.83984,7.6132 0.84375,-7.6132 7.61328,-0.8418 -7.61328,-0.8418 z m 461.12695,4.043 -1.38281,12.5253 -12.52344,1.3848 12.52344,1.3848 1.38281,12.5234 1.38672,-12.5234 12.52344,-1.3848 -12.52344,-1.3848 z m 902.30859,9.8593 -1.3848,12.5254 -12.5234,1.3848 12.5234,1.3828 1.3848,12.5254 1.3848,-12.5254 12.5234,-1.3828 -12.5234,-1.3848 z m -1461.01757,1.6211 -1.38477,12.5235 -12.52539,1.3847 12.52539,1.3848 1.38477,12.5234 1.38476,-12.5234 12.52344,-1.3848 -12.52344,-1.3847 z m 889.77737,3.8946 -1.3828,12.5234 -12.5215,1.3848 12.5215,1.3847 1.3828,12.5254 1.3867,-12.5254 12.5234,-1.3847 -12.5234,-1.3848 z m 680.584,6.6347 -1.3848,12.5254 -12.5234,1.3848 12.5234,1.3828 1.3848,12.5254 1.3847,-12.5254 12.5235,-1.3828 -12.5235,-1.3848 z m -176.504,34.1543 -1.3847,12.5235 -12.5254,1.3847 12.5254,1.3848 1.3847,12.5234 1.3848,-12.5234 12.5235,-1.3848 -12.5235,-1.3847 z m -102.6777,10.7071 -1.3848,12.5253 -12.5234,1.3848 12.5234,1.3828 1.3848,12.5254 1.3848,-12.5254 12.5234,-1.3828 -12.5234,-1.3848 z m -210.6875,21.8925 -1.3848,12.5254 -12.5234,1.3848 12.5234,1.3828 1.3848,12.5254 1.3848,-12.5254 12.5234,-1.3828 -12.5234,-1.3848 z m -942.94725,8.4707 -1.38477,12.5235 -12.52539,1.3847 12.52539,1.3848 1.38477,12.5234 1.38477,-12.5234 12.52343,-1.3848 -12.52343,-1.3847 z m -211.64844,10.2442 -1.38476,12.5254 -12.52344,1.3847 12.52344,1.3828 1.38476,12.5254 1.38477,-12.5254 12.52344,-1.3828 -12.52344,-1.3847 z m 1510.18749,2.8867 -1.3848,12.5234 -12.5234,1.3848 12.5234,1.3848 1.3848,12.5234 1.3848,-12.5234 12.5234,-1.3848 -12.5234,-1.3848 z m -669.2383,10.0527 -1.3847,12.5235 -12.5235,1.3847 12.5235,1.3848 1.3847,12.5234 1.3828,-12.5234 12.5254,-1.3848 -12.5254,-1.3847 z m 733.1426,1.2969 -1.3848,12.5234 -12.5253,1.3848 12.5253,1.3848 1.3848,12.5234 1.3848,-12.5234 12.5234,-1.3848 -12.5234,-1.3848 z m 130.168,1.2852 -1.3848,12.5253 -12.5234,1.3848 12.5234,1.3828 1.3848,12.5254 1.3847,-12.5254 12.5235,-1.3828 -12.5235,-1.3848 z m -265.7735,9.9726 -1.3828,12.5254 -12.5234,1.3848 12.5234,1.3847 1.3828,12.5235 1.3868,-12.5235 12.5234,-1.3847 -12.5234,-1.3848 z m -168.8769,6.0137 -0.8399,7.6133 -7.6152,0.8418 7.6152,0.8418 0.8399,7.6152 0.8418,-7.6152 7.6152,-0.8418 -7.6152,-0.8418 z m -733.46095,7.8437 -1.38477,12.5254 -12.52343,1.3848 12.52343,1.3848 1.38477,12.5234 1.38477,-12.5234 12.52343,-1.3848 -12.52343,-1.3848 z m 448.52735,6.1504 -1.3848,12.5235 -12.5234,1.3847 12.5234,1.3848 1.3848,12.5234 1.3848,-12.5234 12.5234,-1.3848 -12.5234,-1.3847 z m -872.93751,16.4513 -1.38476,12.5234 -12.52344,1.3848 12.52344,1.3848 1.38476,12.5234 1.38477,-12.5234 12.52344,-1.3848 -12.52344,-1.3848 z m 629.85157,26.1136 -1.38477,12.5234 -12.52344,1.3848 12.52344,1.3847 1.38477,12.5235 1.38476,-12.5235 12.52344,-1.3847 -12.52344,-1.3848 z m -347.85743,5.2812 -1.38476,12.5235 -12.52344,1.3847 12.52344,1.3848 1.38476,12.5234 1.38477,-12.5234 12.52344,-1.3848 -12.52344,-1.3847 z m 984.26757,2.5508 -0.8398,7.6152 -7.6153,0.8418 7.6153,0.8418 0.8398,7.6133 0.8418,-7.6133 7.6152,-0.8418 -7.6152,-0.8418 z m 274.2793,5.8867 -1.3848,12.5254 -12.5234,1.3828 12.5234,1.3848 1.3848,12.5254 1.3848,-12.5254 12.5234,-1.3848 -12.5234,-1.3828 z m -1031.02733,8.8827 -1.2168,11.0079 -11.00977,1.2187 11.00977,1.2168 1.2168,11.0078 1.21679,-11.0078 11.00977,-1.2168 -11.00977,-1.2187 z m 443.91403,7.377 -0.8398,7.6133 -7.6153,0.8418 7.6153,0.8418 0.8398,7.6133 0.8438,-7.6133 7.6133,-0.8418 -7.6133,-0.8418 z m -278.73435,0.3594 -1.38476,12.5254 -12.52344,1.3828 12.52344,1.3847 1.38476,12.5254 1.38477,-12.5254 12.52344,-1.3847 -12.52344,-1.3828 z m 424.39065,12.209 -1.2188,11.0097 -11.0078,1.2168 11.0078,1.2168 1.2188,11.0098 1.2168,-11.0098 11.0078,-1.2168 -11.0078,-1.2168 z m 540.6172,1.0254 -1.3848,12.5253 -12.5234,1.3829 12.5234,1.3847 1.3848,12.5254 1.3847,-12.5254 12.5235,-1.3847 -12.5235,-1.3829 z m -830.3516,1.7949 -1.3848,12.5234 -12.5254,1.3848 12.5254,1.3847 1.3848,12.5235 1.3848,-12.5235 12.5234,-1.3847 -12.5234,-1.3848 z m 652.7227,5.1018 -0.8399,7.6133 -7.6152,0.8418 7.6152,0.8418 0.8399,7.6133 0.8437,-7.6133 7.6133,-0.8418 -7.6133,-0.8418 z m -1346.11723,21.6055 -1.38476,12.5254 -12.52344,1.3848 12.52344,1.3847 1.38476,12.5235 1.38477,-12.5235 12.52343,-1.3847 -12.52343,-1.3848 z m -209.41211,0.5098 -1.38476,12.5234 -12.52344,1.3848 12.52344,1.3847 1.38476,12.5235 1.38477,-12.5235 12.52344,-1.3847 -12.52344,-1.3848 z m -108.10742,15.6579 -1.382812,12.5254 -12.523438,1.3847 12.523438,1.3848 1.382812,12.5234 1.386719,-12.5234 12.523441,-1.3848 -12.523441,-1.3847 z m 922.77346,11.4941 -1.3848,12.5235 -12.5234,1.3847 12.5234,1.3848 1.3848,12.5234 1.3847,-12.5234 12.5235,-1.3848 -12.5235,-1.3847 z m -320.93752,4.2715 -1.38477,12.5234 -12.52344,1.3848 12.52344,1.3848 1.38477,12.5234 1.38281,-12.5234 12.52539,-1.3848 -12.52539,-1.3848 z m 776.01952,5.6562 -1.3848,12.5235 -12.5234,1.3848 12.5234,1.3847 1.3848,12.5235 1.3828,-12.5235 12.5254,-1.3847 -12.5254,-1.3848 z m -121.9629,9.0177 -1.2168,11.0098 -11.0078,1.2168 11.0078,1.2168 1.2168,11.0098 1.2188,-11.0098 11.0078,-1.2168 -11.0078,-1.2168 z m 283.082,13.9532 -1.3847,12.5234 -12.5235,1.3848 12.5235,1.3847 1.3847,12.5235 1.3848,-12.5235 12.5235,-1.3847 -12.5235,-1.3848 z m 205.3965,7.1289 -1.3828,12.5253 -12.5234,1.3848 12.5234,1.3848 1.3828,12.5234 1.3868,-12.5234 12.5234,-1.3848 -12.5234,-1.3848 z m -729.2675,6.2031 -1.3848,12.5234 -12.5234,1.3848 12.5234,1.3848 1.3848,12.5234 1.3847,-12.5234 12.5235,-1.3848 -12.5235,-1.3848 z m 189.8652,5.6601 -1.3848,12.5254 -12.5234,1.3848 12.5234,1.3828 1.3848,12.5254 1.3848,-12.5254 12.5234,-1.3828 -12.5234,-1.3848 z m -738.34962,3.1329 -0.83984,7.6132 -7.61524,0.8418 7.61524,0.8418 0.83984,7.6133 0.84375,-7.6133 7.61328,-0.8418 -7.61328,-0.8418 z m 893.28712,28.498 -1.3848,12.5234 -12.5234,1.3848 12.5234,1.3848 1.3848,12.5234 1.3848,-12.5234 12.5234,-1.3848 -12.5234,-1.3848 z m -1332.80079,9.6816 -1.38477,12.5235 -12.52343,1.3847 12.52343,1.3848 1.38477,12.5234 1.38476,-12.5234 12.52344,-1.3848 -12.52344,-1.3847 z m 254.32422,18.0785 -1.38281,12.5234 -12.52344,1.3848 12.52344,1.3847 1.38281,12.5254 1.38672,-12.5254 12.52343,-1.3847 -12.52343,-1.3848 z m -109.19141,4.7695 -1.38476,12.5234 -12.52344,1.3848 12.52344,1.3848 1.38476,12.5234 1.38477,-12.5234 12.52343,-1.3848 -12.52343,-1.3848 z m 333.39063,4.2168 -0.83985,7.6133 -7.61523,0.8418 7.61523,0.8418 0.83985,7.6152 0.84179,-7.6152 7.61524,-0.8418 -7.61524,-0.8418 z m 1153.50975,9.0723 -1.3848,12.5253 -12.5234,1.3848 12.5234,1.3848 1.3848,12.5234 1.3848,-12.5234 12.5234,-1.3848 -12.5234,-1.3848 z m -937.21093,0.2109 -1.21679,11.0078 -11.00977,1.2188 11.00977,1.2168 1.21679,11.0078 1.2168,-11.0078 11.00977,-1.2168 -11.00977,-1.2188 z m 741.09573,0.1113 -1.3848,12.5235 -12.5254,1.3847 12.5254,1.3848 1.3848,12.5234 1.3847,-12.5234 12.5235,-1.3848 -12.5235,-1.3847 z m -405.8946,4.7481 -1.3847,12.5254 -12.5235,1.3828 12.5235,1.3847 1.3847,12.5254 1.3848,-12.5254 12.5234,-1.3847 -12.5234,-1.3828 z m -457.79488,1.9394 -1.38671,12.5254 -12.52149,1.3848 12.52149,1.3828 1.38671,12.5254 1.38282,-12.5254 12.52539,-1.3828 -12.52539,-1.3848 z m 391.18168,0.5489 -1.3848,12.5234 -12.5234,1.3848 12.5234,1.3847 1.3848,12.5235 1.3847,-12.5235 12.5235,-1.3847 -12.5235,-1.3848 z m 819.332,12.1757 -0.8398,7.6133 -7.6153,0.8418 7.6153,0.8418 0.8398,7.6133 0.8437,-7.6133 7.6133,-0.8418 -7.6133,-0.8418 z m -1703.34571,3.4632 -1.38476,12.5235 -12.52344,1.3847 12.52344,1.3848 1.38476,12.5234 1.38477,-12.5234 12.52344,-1.3848 -12.52344,-1.3847 z m 1028.16411,5.4766 -1.3848,12.5234 -12.5234,1.3848 12.5234,1.3848 1.3848,12.5234 1.3847,-12.5234 12.5235,-1.3848 -12.5235,-1.3848 z m -294.35747,1.1523 -1.38476,12.5254 -12.52344,1.3848 12.52344,1.3828 1.38476,12.5254 1.38477,-12.5254 12.52344,-1.3828 -12.52344,-1.3848 z m -300.50781,2.5918 -1.38476,12.5254 -12.52344,1.3828 12.52344,1.3848 1.38476,12.5254 1.38477,-12.5254 12.52343,-1.3848 -12.52343,-1.3828 z m 712.65428,1.8789 -1.3847,12.5235 -12.5235,1.3847 12.5235,1.3848 1.3847,12.5234 1.3848,-12.5234 12.5234,-1.3848 -12.5234,-1.3847 z m 119.5879,1.3457 -1.3848,12.5254 -12.5234,1.3848 12.5234,1.3828 1.3848,12.5254 1.3848,-12.5254 12.5234,-1.3828 -12.5234,-1.3848 z m -981.79687,7.3672 -1.38476,12.5235 -12.52344,1.3847 12.52344,1.3848 1.38476,12.5234 1.38477,-12.5234 12.52344,-1.3848 -12.52344,-1.3847 z m 545.15427,10.8789 -1.3828,12.5235 -12.5254,1.3847 12.5254,1.3848 1.3828,12.5234 1.3848,-12.5234 12.5234,-1.3848 -12.5234,-1.3847 z m -667.99606,4.3321 -1.38477,12.5234 -12.52539,1.3848 12.52539,1.3847 1.38477,12.5235 1.38476,-12.5235 12.52344,-1.3847 -12.52344,-1.3848 z m 344.7832,9.1753 -1.38477,12.5235 -12.52343,1.3847 12.52343,1.3848 1.38477,12.5234 1.38477,-12.5234 12.52343,-1.3848 -12.52343,-1.3847 z m 1100.00196,2.9024 -1.3828,12.5234 -12.5254,1.3848 12.5254,1.3848 1.3828,12.5234 1.3848,-12.5234 12.5234,-1.3848 -12.5234,-1.3848 z m -698.8555,17.8476 -1.3847,12.5235 -12.5235,1.3847 12.5235,1.3848 1.3847,12.5254 1.3848,-12.5254 12.5234,-1.3848 -12.5234,-1.3847 z m -497.60544,1.961 -1.38282,12.5234 -12.52343,1.3848 12.52343,1.3847 1.38282,12.5254 1.38671,-12.5254 12.52344,-1.3847 -12.52344,-1.3848 z m 1021.17964,1.9687 -1.3847,12.5254 -12.5235,1.3848 12.5235,1.3828 1.3847,12.5254 1.3848,-12.5254 12.5234,-1.3828 -12.5234,-1.3848 z m -1423.22261,5.4649 -1.38477,12.5234 -12.52344,1.3848 12.52344,1.3847 1.38477,12.5235 1.38476,-12.5235 12.52344,-1.3847 -12.52344,-1.3848 z m 1331.29101,12.6308 -1.3828,12.5235 -12.5234,1.3847 12.5234,1.3848 1.3828,12.5254 1.3867,-12.5254 12.5235,-1.3848 -12.5235,-1.3847 z m 146.1504,7.791 -1.2168,11.0079 -11.0098,1.2168 11.0098,1.2187 1.2168,11.0078 1.2168,-11.0078 11.0098,-1.2187 -11.0098,-1.2168 z m -258.3301,1.1934 -1.3848,12.5254 -12.5234,1.3848 12.5234,1.3847 1.3848,12.5235 1.3848,-12.5235 12.5234,-1.3847 -12.5234,-1.3848 z m 413.7266,6.8574 -1.3848,12.5235 -12.5234,1.3847 12.5234,1.3848 1.3848,12.5234 1.3847,-12.5234 12.5235,-1.3848 -12.5235,-1.3847 z m -1509.38869,2.3692 -1.38477,12.5254 -12.52344,1.3828 12.52344,1.3847 1.38477,12.5254 1.38476,-12.5254 12.52344,-1.3847 -12.52344,-1.3828 z m 705.84179,0.6777 -1.3848,12.5254 -12.5234,1.3828 12.5234,1.3848 1.3848,12.5254 1.3848,-12.5254 12.5234,-1.3848 -12.5234,-1.3828 z m -621.19922,16.9707 -1.38476,12.5234 -12.52344,1.3848 12.52344,1.3848 1.38476,12.5234 1.38477,-12.5234 12.52344,-1.3848 -12.52344,-1.3848 z m 550.58789,0.033 -1.21679,11.0078 -11.00977,1.2188 11.00977,1.2168 1.21679,11.0078 1.2168,-11.0078 11.00977,-1.2168 -11.00977,-1.2188 z m -74.48046,6.3848 -1.38477,12.5254 -12.52344,1.3828 12.52344,1.3847 1.38477,12.5254 1.38476,-12.5254 12.52344,-1.3847 -12.52344,-1.3828 z m -345.80079,3.498 -1.38281,12.5235 -12.52539,1.3847 12.52539,1.3828 1.38281,12.5254 1.38477,-12.5254 12.52344,-1.3828 -12.52344,-1.3847 z m 1354.11918,1.5606 -1.3848,12.5254 -12.5234,1.3828 12.5234,1.3847 1.3848,12.5254 1.3847,-12.5254 12.5235,-1.3847 -12.5235,-1.3828 z m -721.6094,7.4883 -1.3848,12.5253 -12.5234,1.3829 12.5234,1.3847 1.3848,12.5254 1.3848,-12.5254 12.5234,-1.3847 -12.5234,-1.3829 z m 117.1601,4.1972 -1.3847,12.5235 -12.5235,1.3847 12.5235,1.3848 1.3847,12.5234 1.3848,-12.5234 12.5234,-1.3848 -12.5234,-1.3847 z m -588.40034,12.5742 -1.38477,12.5235 -12.52539,1.3847 12.52539,1.3848 1.38477,12.5234 1.38476,-12.5234 12.52344,-1.3848 -12.52344,-1.3847 z m 1118.62694,21.9982 -1.3848,12.5254 -12.5234,1.3847 12.5234,1.3829 1.3848,12.5253 1.3848,-12.5253 12.5234,-1.3829 -12.5234,-1.3847 z m -1479.66601,0.25 -1.38476,12.5234 -12.52344,1.3848 12.52344,1.3848 1.38476,12.5234 1.38282,-12.5234 12.52539,-1.3848 -12.52539,-1.3848 z m 1200.77731,2.4983 -1.3847,12.5234 -12.5235,1.3848 12.5235,1.3847 1.3847,12.5235 1.3848,-12.5235 12.5234,-1.3847 -12.5234,-1.3848 z m -1380.2109,0.6406 -1.38477,12.5234 -12.52343,1.3848 12.52343,1.3848 1.38477,12.5234 1.38477,-12.5234 12.52343,-1.3848 -12.52343,-1.3848 z m 482.85742,0.5684 -1.38281,12.5254 -12.52344,1.3847 12.52344,1.3848 1.38281,12.5234 1.38672,-12.5234 12.52344,-1.3848 -12.52344,-1.3847 z m 1042.41018,2.3086 -1.3848,12.5254 -12.5234,1.3847 12.5234,1.3828 1.3848,12.5254 1.3847,-12.5254 12.5235,-1.3828 -12.5235,-1.3847 z m -657.918,4.8613 -1.3848,12.5234 -12.5234,1.3848 12.5234,1.3848 1.3848,12.5253 1.3848,-12.5253 12.5234,-1.3848 -12.5234,-1.3848 z m -192.58983,4.2209 -1.38477,12.5254 -12.52344,1.3828 12.52344,1.3848 1.38477,12.5254 1.38476,-12.5254 12.52344,-1.3848 -12.52344,-1.3828 z m -590.81055,38.9979 -1.38477,12.5235 -12.52343,1.3847 12.52343,1.3848 1.38477,12.5254 1.38476,-12.5254 12.52344,-1.3848 -12.52344,-1.3847 z m 674.74609,16.2541 -1.38476,12.5235 -12.52344,1.3847 12.52344,1.3848 1.38476,12.5254 1.38477,-12.5254 12.52344,-1.3848 -12.52344,-1.3847 z m -553.19726,3.2911 -1.38477,12.5254 -12.52344,1.3847 12.52344,1.3828 1.38477,12.5254 1.38476,-12.5254 12.52344,-1.3828 -12.52344,-1.3847 z m 1025.81245,5.6972 -1.2168,11.0098 -11.0078,1.2168 11.0078,1.2168 1.2168,11.0098 1.2188,-11.0098 11.0078,-1.2168 -11.0078,-1.2168 z m -813.37495,3.2305 -1.38477,12.5234 -12.52344,1.3848 12.52344,1.3848 1.38477,12.5234 1.38281,-12.5234 12.52539,-1.3848 -12.52539,-1.3848 z m 617.12895,1.9902 -1.3848,12.5235 -12.5254,1.3847 12.5254,1.3848 1.3848,12.5234 1.3847,-12.5234 12.5235,-1.3848 -12.5235,-1.3847 z m -108.1368,4.0078 -1.2168,11.0079 -11.0097,1.2168 11.0097,1.2187 1.2168,11.0078 1.2168,-11.0078 11.0098,-1.2187 -11.0098,-1.2168 z m 595.0801,0.5137 -1.3828,12.5254 -12.5234,1.3848 12.5234,1.3847 1.3828,12.5235 1.3867,-12.5235 12.5235,-1.3847 -12.5235,-1.3848 z m -1000.42772,29.5625 -1.38477,12.5235 -12.52539,1.3847 12.52539,1.3848 1.38477,12.5234 1.38476,-12.5234 12.52344,-1.3848 -12.52344,-1.3847 z m 843.62502,1.2988 -1.3848,12.5235 -12.5234,1.3847 12.5234,1.3848 1.3848,12.5234 1.3828,-12.5234 12.5254,-1.3848 -12.5254,-1.3847 z m -1065.12502,0.9512 -1.38477,12.5254 -12.52344,1.3848 12.52344,1.3828 1.38477,12.5254 1.38476,-12.5254 12.52344,-1.3828 -12.52344,-1.3848 z m 308.43164,13.7305 -1.38477,12.5234 -12.52539,1.3848 12.52539,1.3848 1.38477,12.5234 1.38476,-12.5234 12.52344,-1.3848 -12.52344,-1.3848 z m -669.01367,2.4316 -1.38477,12.5235 -12.523437,1.3847 12.523437,1.3848 1.38477,12.5234 1.38281,-12.5234 12.52539,-1.3848 -12.52539,-1.3847 z m 1036.82035,0.9414 -1.3848,12.5235 -12.5234,1.3847 12.5234,1.3848 1.3848,12.5234 1.3847,-12.5234 12.5235,-1.3848 -12.5235,-1.3847 z m 132.4472,3.0117 -1.3847,12.5254 -12.5235,1.3829 12.5235,1.3847 1.3847,12.5254 1.3848,-12.5254 12.5234,-1.3847 -12.5234,-1.3829 z m -404.5156,8.3711 -1.38281,12.5235 -12.52344,1.3847 12.52344,1.3848 1.38281,12.5254 1.38672,-12.5254 12.52344,-1.3848 -12.52344,-1.3847 z m -545.35938,7.107 -1.38476,12.5254 -12.52344,1.3847 12.52344,1.3848 1.38476,12.5234 1.38477,-12.5234 12.52344,-1.3848 -12.52344,-1.3847 z m 1517.99028,7.3964 -0.8399,7.6133 -7.6152,0.8418 7.6152,0.8418 0.8399,7.6133 0.8437,-7.6133 7.6133,-0.8418 -7.6133,-0.8418 z m -848.38676,4.7559 -1.38477,12.5234 -12.52343,1.3848 12.52343,1.3848 1.38477,12.5254 1.38477,-12.5254 12.52339,-1.3848 -12.52339,-1.3848 z m -359.4043,14.8594 -1.38476,12.5254 -12.52344,1.3828 12.52344,1.3848 1.38476,12.5253 1.38477,-12.5253 12.52344,-1.3848 -12.52344,-1.3828 z m 994.37496,2.4101 -1.3847,12.5254 -12.5235,1.3848 12.5235,1.3828 1.3847,12.5254 1.3848,-12.5254 12.5234,-1.3828 -12.5234,-1.3848 z m -542.3711,30.5039 -1.2167,11.0098 -11.0079,1.2168 11.0079,1.2168 1.2167,11.0098 1.2188,-11.0098 11.0078,-1.2168 -11.0078,-1.2168 z m -194.03706,1.2422 -1.38477,12.5254 -12.52343,1.3828 12.52343,1.3848 1.38477,12.5254 1.38477,-12.5254 12.52343,-1.3848 -12.52343,-1.3828 z m 502.59956,5.5625 -1.3847,12.5254 -12.5235,1.3848 12.5235,1.3848 1.3847,12.5234 1.3848,-12.5234 12.5235,-1.3848 -12.5235,-1.3848 z m -143.873,2.7032 -1.3848,12.5234 -12.5254,1.3848 12.5254,1.3847 1.3848,12.5235 1.3848,-12.5235 12.5234,-1.3847 -12.5234,-1.3848 z" /></g></svg>
